<svg width="40" height="40" viewBox="0 0 40 40" fill="none" xmlns="http://www.w3.org/2000/svg">
<circle cx="20" cy="20" r="20" fill="#FFFEFE"/>
<path d="M19.5 9C25.8515 9 31 14.1485 31 20.5C31 26.8515 25.8515 32 19.5 32C13.1485 32 8 26.8515 8 20.5C8 14.1485 13.1485 9 19.5 9ZM23.467 25.1875C23.6785 24.5385 24.6695 18.0705 24.792 16.796C24.829 16.41 24.707 16.1535 24.468 16.039C24.179 15.9 23.751 15.9695 23.2545 16.1485C22.5735 16.394 13.8675 20.0905 13.3645 20.3045C12.8875 20.507 12.4365 20.728 12.4365 21.048C12.4365 21.273 12.57 21.3995 12.938 21.531C13.321 21.6675 14.2855 21.96 14.855 22.117C15.4035 22.2685 16.028 22.137 16.378 21.9195C16.749 21.689 21.0305 18.824 21.338 18.573C21.645 18.322 21.89 18.6435 21.639 18.895C21.388 19.146 18.449 21.9985 18.0615 22.3935C17.591 22.873 17.925 23.37 18.2405 23.569C18.601 23.796 21.1935 25.535 21.584 25.814C21.9745 26.093 22.3705 26.2195 22.733 26.2195C23.0955 26.2195 23.2865 25.742 23.467 25.1875Z" fill="black"/>
</svg>
