<svg width="66" height="61" viewBox="0 0 66 61" fill="none" xmlns="http://www.w3.org/2000/svg">
<path d="M1.18662 35.3017L1.20673 34.7989C1.50171 34.6514 1.9911 34.524 2.67491 34.4167C3.37213 34.2961 3.84812 34.1821 4.10287 34.0748C4.37103 33.9542 4.59227 33.8 4.76657 33.6123C4.88725 33.0223 4.94758 31.9564 4.94758 30.4144L4.66601 14.7672L4.72635 12.1727C4.72635 11.6364 4.62579 11.2677 4.42467 11.0666C4.23695 10.8655 3.73415 10.6844 2.91626 10.5235C2.09836 10.3492 1.61567 10.2085 1.46818 10.1012C1.3207 9.99393 1.24695 9.87996 1.24695 9.75929C1.24695 9.69225 1.26706 9.60509 1.30729 9.49783C1.48159 9.39057 1.6626 9.33693 1.85032 9.33693C2.05144 9.33693 2.46038 9.35034 3.07715 9.37716H3.64029C3.82801 9.37716 4.35763 9.36375 5.22915 9.33693H8.02474L13.7969 9.23637L19.911 8.99503H20.454L21.3188 8.97491C21.5602 8.97491 21.7747 9.04196 21.9624 9.17604C22.0429 9.39057 22.0898 9.54476 22.1032 9.63861L22.0831 10.4431L22.2641 14.0432C22.2641 14.1907 22.2507 14.3784 22.2239 14.6063C22.0094 14.7002 21.8149 14.7471 21.6406 14.7471C21.52 14.7471 21.4261 14.7069 21.3591 14.6264C21.2518 14.4789 21.1848 14.1974 21.158 13.7817C21.1043 13.2052 20.8965 12.461 20.5345 11.5493C20.3602 11.1202 20.0719 10.8252 19.6697 10.6643C18.8652 10.3559 17.511 10.2018 15.607 10.2018C14.7087 10.2018 13.8707 10.2286 13.093 10.2822C12.3153 10.3224 11.8393 10.3425 11.665 10.3425L10.0963 10.3224C9.4527 10.3224 8.92308 10.4163 8.50743 10.604C8.22586 10.7247 8.08507 11.0129 8.08507 11.4688V11.7705C8.1253 12.4543 8.14541 13.2119 8.14541 14.0432L8.08507 19.5137C8.08507 20.05 8.1253 20.5595 8.20575 21.0422L8.789 21.0824L9.91528 21.0221H13.7567C15.2986 21.0221 16.3713 20.9148 16.9746 20.7003C17.3769 20.5528 17.6786 20.3316 17.8797 20.0366C17.9467 19.9427 18.1143 19.4131 18.3825 18.4477L18.6439 16.7784C18.8048 16.698 18.9255 16.6577 19.006 16.6577C19.073 16.6577 19.1803 16.6913 19.3277 16.7583C19.3814 17.0667 19.4149 17.536 19.4283 18.1662L19.6697 25.5674C19.4417 25.6613 19.2674 25.7082 19.1467 25.7082L18.9255 25.668C18.711 24.3272 18.3758 23.2746 17.9199 22.5104C17.759 22.2422 17.578 22.088 17.3769 22.0478C17.0283 21.9673 15.4327 21.9271 12.5902 21.9271C11.7053 21.9271 11.0952 21.9338 10.76 21.9472C9.9555 21.9875 9.47281 22.0076 9.31191 22.0076H9.11079C8.70855 22.0076 8.42027 22.0612 8.24597 22.1685C8.19234 22.3294 8.16552 22.4433 8.16552 22.5104V23.8981C8.16552 24.059 8.17223 24.7294 8.18563 25.9093L8.14541 32.5664C8.14541 32.7541 8.19904 32.9888 8.30631 33.2704C8.58788 33.4983 9.09738 33.6525 9.83483 33.7329C10.5857 33.8 11.2896 33.9743 11.9466 34.2559C12.322 34.4302 12.5097 34.6246 12.5097 34.8391C12.5097 34.933 12.4829 35.0201 12.4293 35.1006C12.3757 35.181 12.2818 35.2413 12.1477 35.2816C11.0483 35.0536 9.52644 34.9397 7.58227 34.9397C6.54985 34.9397 5.45709 35.0335 4.30399 35.2212C3.51292 35.3419 2.60787 35.4022 1.58886 35.4022L1.18662 35.3017Z" fill="white"/>
<path d="M34.0402 50.2669L34.0603 49.8244C34.5162 49.5697 35.0458 49.4088 35.6492 49.3417C36.6012 49.2211 37.2045 49.1004 37.4593 48.9797C37.714 48.8456 37.8951 48.6646 38.0023 48.4367C38.19 47.9942 38.2839 47.5451 38.2839 47.0892L38.2437 45.5607L38.2638 44.1528L38.2236 42.5036C38.2236 41.8198 38.2437 40.9684 38.2839 39.9494C38.3241 38.917 38.3442 38.3672 38.3442 38.3002V32.8096C38.3442 31.938 38.3643 30.9995 38.4046 29.9939C38.4448 28.9749 38.4649 28.2709 38.4649 27.8821C38.4649 26.729 38.4381 26.0586 38.3845 25.8709C38.3308 25.6832 38.2303 25.5491 38.0828 25.4686C37.9353 25.3882 37.4526 25.3145 36.6347 25.2474C36.0045 25.1938 35.5688 25.1469 35.3274 25.1066C35.2604 24.9591 35.2268 24.8385 35.2268 24.7446C35.2268 24.6373 35.2336 24.51 35.247 24.3625C35.5688 24.3357 35.8168 24.3223 35.9911 24.3223L37.8816 24.3424C39.2225 24.3424 40.6437 24.2887 42.1454 24.1815C42.8829 24.1278 43.9957 24.0809 45.484 24.0407C45.5108 24.1614 45.5243 24.2753 45.5243 24.3826C45.5243 24.5167 45.4907 24.6239 45.4237 24.7044C45.3701 24.7714 45.2695 24.8184 45.122 24.8452C43.3656 24.9927 42.3264 25.2139 42.0046 25.5089C41.6962 25.7904 41.5421 26.5212 41.5421 27.7011C41.5421 29.8732 41.5756 32.1124 41.6426 34.4185L41.7231 36.3091C41.7901 36.3627 42.6616 36.4298 44.3376 36.5102C44.7935 36.537 45.0617 36.5504 45.1421 36.5504L48.0986 36.5102L50.0495 36.5705L55.158 36.4096C55.7881 36.3962 56.1703 36.3694 56.3044 36.3292C56.3848 33.9962 56.425 31.7369 56.425 29.5514C56.425 27.4463 56.3781 26.2061 56.2842 25.8307C56.2306 25.6027 56.1367 25.4485 56.0027 25.3681C55.9222 25.3279 55.225 25.2206 53.911 25.0463C53.6831 25.0195 53.4685 24.986 53.2674 24.9457C53.2004 24.7446 53.1669 24.5167 53.1669 24.2619C53.6227 24.1949 53.911 24.1614 54.0317 24.1614L55.3591 24.2418C56.5792 24.3088 57.8061 24.3424 59.0396 24.3424C59.8307 24.3424 61.1447 24.2753 62.9816 24.1412C62.9682 24.4094 62.9346 24.6508 62.881 24.8653C62.3715 25.0664 61.7614 25.1938 61.0508 25.2474C60.5949 25.2742 60.2128 25.348 59.9044 25.4686C59.6497 25.6564 59.5223 26.0385 59.5223 26.615C59.5223 26.7491 59.529 26.8966 59.5424 27.0575C59.5558 27.5402 59.5625 27.8553 59.5625 28.0028V30.3157L59.5826 31.7637L59.5424 33.6342L59.5625 37.1337L59.5223 40.4321C59.5223 41.0891 59.5424 42.1148 59.5826 43.5092L59.5625 46.2244C59.5625 47.1361 59.643 47.7864 59.8039 48.1752C59.8843 48.3629 60.0184 48.497 60.2061 48.5775L61.8352 48.9395C62.6397 49.1406 63.1157 49.3082 63.2631 49.4423C63.424 49.563 63.5045 49.7105 63.5045 49.8848L63.4442 50.1261L63.3436 50.1462C63.2766 50.1462 63.1894 50.1328 63.0821 50.106C61.6207 49.8378 60.0854 49.7038 58.4765 49.7038C57.2161 49.7038 56.3178 49.7239 55.7814 49.7641C55.2585 49.8043 54.1591 49.9518 52.483 50.2066C52.4562 50.0323 52.4428 49.9049 52.4428 49.8244C52.4428 49.7306 52.4562 49.6032 52.483 49.4423C52.8987 49.2009 53.5557 49.0333 54.454 48.9395C55.1244 48.8725 55.6541 48.6579 56.0429 48.2959C56.2976 48.0546 56.425 47.6992 56.425 47.23L56.4049 44.3338C56.4451 43.4623 56.4652 42.9863 56.4652 42.9059C56.4652 41.7662 56.4451 40.1036 56.4049 37.918C56.3647 37.7303 56.2909 37.6164 56.1837 37.5761C55.8217 37.4555 54.0384 37.4823 50.8339 37.6566C50.1903 37.6968 49.7076 37.7169 49.3858 37.7169C49.064 37.7169 48.3869 37.7035 47.3545 37.6767C46.3354 37.6365 45.3902 37.6164 44.5186 37.6164C44.0494 37.6164 43.6538 37.6231 43.332 37.6365C42.7153 37.6499 42.3734 37.6566 42.3063 37.6566C41.9979 37.6566 41.7834 37.7169 41.6627 37.8376C41.5555 37.9583 41.5018 38.1795 41.5018 38.5013L41.5219 39.9091C41.5219 40.1371 41.4884 41.4042 41.4214 43.7103C41.408 44.1796 41.4013 44.5685 41.4013 44.8768C41.4013 46.7138 41.4683 47.9339 41.6024 48.5372C41.6694 48.8188 41.7901 49.0132 41.9644 49.1205C42.0851 49.2009 42.608 49.3417 43.5332 49.5429C44.1499 49.6769 44.6192 49.8043 44.941 49.925L45.0617 50.1261C45.0617 50.1931 45.0349 50.2468 44.9812 50.287C44.9008 50.354 44.7868 50.3876 44.6393 50.3876C44.5321 50.3876 44.4047 50.3809 44.2572 50.3675C44.1097 50.3675 43.8214 50.3607 43.3924 50.3473C42.7086 50.3339 41.8571 50.287 40.8381 50.2066C40.1811 50.1529 39.5979 50.1261 39.0884 50.1261C38.2303 50.1261 36.8559 50.1663 34.9654 50.2468C34.6034 50.2602 34.295 50.2669 34.0402 50.2669Z" fill="white"/>
<path d="M43.2543 28.0298C42.3447 26.5979 40.9012 25.4341 39.2337 25.138C37.2751 24.7903 35.4503 25.7537 33.8761 26.8446C33.4742 27.1231 33.0771 27.4108 32.689 27.7092C32.3047 28.0048 31.9296 28.3195 31.6068 28.6859C31.2975 29.0368 31.0381 29.4329 30.8623 29.871C30.6892 30.3022 30.6127 30.7615 30.5908 31.2261C30.5468 32.1554 30.7182 33.0559 31.1285 33.889C31.5265 34.6968 32.1151 35.3994 32.7914 35.9763C33.125 36.2609 33.4809 36.5166 33.8535 36.7443C33.907 36.7769 33.9572 36.7622 33.9902 36.7276C34.0034 36.74 34.0169 36.7521 34.0287 36.7658C34.032 36.7695 34.0353 36.7735 34.0384 36.7773C34.0468 36.7888 34.0548 36.8003 34.0625 36.8126C34.0773 36.8359 34.0912 36.8597 34.1032 36.8845C34.1049 36.8878 34.1066 36.8913 34.108 36.8946L34.1073 36.8947C34.103 36.8862 34.0992 36.8824 34.1066 36.8947C34.0994 36.8941 34.0924 36.8925 34.085 36.8927C33.554 36.8981 33.0072 36.9071 32.4983 37.081C32.1379 37.2042 31.8118 37.4094 31.5384 37.6795C31.0087 38.2026 30.7141 38.9351 30.6324 39.6762C30.5486 40.4376 30.7137 41.2106 31.1172 41.8576C31.5628 42.5717 32.2413 43.115 32.9969 43.4472C33.7927 43.797 34.6581 43.9408 35.521 43.8765C36.5413 43.8005 37.5183 43.4758 38.4418 43.0373C39.31 42.6249 40.1472 42.1186 40.922 41.5433C41.6802 40.9805 42.3756 40.3335 42.933 39.5591C43.5175 38.7469 43.897 37.8039 44.1377 36.8287C44.3828 35.8357 44.512 34.8025 44.5557 33.7798C44.64 31.8028 44.3245 29.715 43.2543 28.0298Z" fill="#AD8FD4"/>
<path d="M27.0305 30.0906C26.9125 28.7891 26.3265 27.4806 25.2506 26.562C24.7151 26.1046 24.0596 25.761 23.3397 25.5789C22.3755 25.3353 21.3478 25.3867 20.3734 25.5638C18.696 25.869 17.0649 26.5284 15.7176 27.46C14.3448 28.4093 13.2647 29.6412 12.674 31.0897C12.0849 32.5345 12.0002 34.1668 12.5701 35.6223C13.1032 36.9839 14.2231 38.2161 15.7378 38.8155C17.23 39.4061 19.0943 39.335 20.4467 38.475C21.1042 38.0569 21.5843 37.4844 21.8517 36.8129C22.1081 36.1693 22.1469 35.4479 21.9362 34.7921C21.926 34.76 21.9147 34.7282 21.9029 34.6967C22.3611 34.8997 22.8938 34.9781 23.4064 34.9397C23.8048 34.9097 24.1925 34.8316 24.5708 34.6805C24.9351 34.5351 25.2684 34.3279 25.554 34.082C26.728 33.0711 27.1576 31.4903 27.0305 30.0906Z" fill="#AD8FD4"/>
<path d="M43.5839 31.9265C43.0309 33.3482 41.8156 34.4047 40.4656 35.0026C39.0413 35.6333 37.4769 35.7901 35.9336 35.8182C37.3917 34.9916 38.5185 33.567 39.4073 32.1605C39.7583 31.6052 40.0926 31.037 40.4078 30.4596C40.5011 30.2889 40.2501 30.1474 40.15 30.3117C39.5588 31.2809 39.0068 32.2737 38.319 33.1769C37.6885 34.0048 36.9617 34.765 36.0946 35.3339C35.8112 35.52 35.5138 35.6833 35.2066 35.8235C35.1765 35.8235 35.1465 35.8234 35.1165 35.8234C34.9411 35.8226 34.766 35.821 34.5906 35.8197C34.7461 35.6624 34.8903 35.4935 35.0241 35.323C35.3053 34.9643 35.5479 34.5753 35.7534 34.1664C36.1763 33.3248 36.4576 32.4145 36.6814 31.4989C36.8088 30.977 36.9366 30.447 37.0161 29.9148C37.0437 29.7304 36.7826 29.6536 36.7362 29.8413C36.6252 30.2891 36.5466 30.7456 36.4415 31.195C36.3357 31.6479 36.2175 32.098 36.0772 32.5411C35.8045 33.4015 35.4425 34.2474 34.9122 34.9763C34.782 35.1553 34.6398 35.3187 34.4908 35.4747C34.4672 35.1994 34.4201 34.9226 34.3808 34.6545C34.3242 34.2663 34.2588 33.8794 34.1826 33.4946C34.0292 32.7192 33.837 31.9506 33.6001 31.1975C33.4641 30.7655 33.3204 30.3336 33.1485 29.9151C33.0774 29.7418 32.8031 29.8145 32.8674 29.9998C33.1245 30.7399 33.3757 31.4787 33.576 32.2377C33.7778 33.0018 33.939 33.7767 34.059 34.5587C34.0923 34.776 34.1218 34.9939 34.1492 35.2121C34.1716 35.3909 34.1866 35.5715 34.2146 35.7495C34.1911 35.7715 34.1684 35.7944 34.145 35.8162C33.5491 35.8128 32.9535 35.8169 32.359 35.8593C31.4584 35.9234 30.5697 36.1266 29.7546 36.5293C28.9848 36.9097 28.2949 37.4325 27.67 38.0262C27.6046 38.0882 27.5403 38.1515 27.476 38.2149C27.5159 38.1202 27.5558 38.0258 27.5954 37.9311C28.0851 36.7622 28.5598 35.5838 28.9304 34.3691C29.265 33.2726 29.5037 32.1467 29.6426 31.0067C29.9183 28.746 29.8153 26.4425 29.3382 24.2159C28.8655 22.0093 28.0379 19.8345 26.8489 17.9256C26.7005 17.6876 26.5412 17.4571 26.3786 17.2289C26.2488 17.0468 25.9625 17.2151 26.0815 17.4136C26.6605 18.3794 27.1978 19.3797 27.6336 20.422C28.0703 21.4667 28.4138 22.5496 28.6697 23.655C29.1787 25.8531 29.3277 28.1289 29.1168 30.3768C29.0117 31.4978 28.8047 32.6105 28.5053 33.6941C28.1715 34.9021 27.7219 36.0725 27.2438 37.2274C26.9126 38.0276 26.5659 38.8259 26.2332 39.63C26.1496 39.7405 26.0673 39.8521 25.9878 39.9656C25.5009 40.6592 25.0727 41.4449 24.8018 42.2753C24.7305 41.8416 24.6471 41.4104 24.5458 40.983C24.2713 39.8247 23.8715 38.699 23.3194 37.6475C23.0424 37.1198 22.7184 36.6206 22.3519 36.154C21.9469 35.6387 21.4835 35.1883 21.0021 34.7491C20.9795 34.7284 20.9567 34.7077 20.934 34.687C20.9123 34.5465 20.8865 34.4061 20.8691 34.2658C20.8638 34.2223 20.8601 34.1788 20.855 34.1356C21.5449 33.1472 22.4618 32.3453 23.5597 31.8507C23.7364 31.7712 23.9161 31.6993 24.0989 31.6347C24.2887 31.5676 24.4855 31.5222 24.6744 31.4543C24.8329 31.3972 24.8138 31.1142 24.6268 31.1369C24.2683 31.1801 23.9065 31.3163 23.5735 31.4545C23.233 31.5955 22.9041 31.7681 22.5917 31.9662C21.9714 32.3593 21.4092 32.8555 20.9438 33.4303C20.8974 33.4876 20.8536 33.5464 20.8093 33.6053C20.8075 33.5746 20.8045 33.5443 20.8029 33.5136C20.7786 33.0103 20.7937 32.5044 20.8488 32.0036C20.9569 31.0209 21.2181 30.0471 21.6193 29.1472C21.8493 28.6321 22.1215 28.1451 22.4325 27.6768C22.5375 27.5191 22.289 27.385 22.1828 27.5334C20.9967 29.1909 20.4139 31.2937 20.4747 33.3392C20.4813 33.5685 20.4966 33.7976 20.5201 34.0258C20.4831 34.0851 20.4457 34.1441 20.4109 34.2044C20.1737 33.9803 19.9426 33.7502 19.7244 33.5057C19.5994 33.147 19.4909 32.7822 19.4008 32.4127C19.2007 31.5888 19.0996 30.7504 19.0738 29.9029C19.0594 29.4244 19.0863 28.9515 19.115 28.4741C19.1256 28.2964 18.8318 28.2579 18.8068 28.437C18.6556 29.518 18.7218 30.6421 18.9074 31.714C18.9694 32.0711 19.049 32.4249 19.1433 32.7745C18.943 32.4936 18.7545 32.2014 18.5814 31.9C17.979 30.8512 17.5726 29.6977 17.3561 28.5022C17.3285 28.3503 17.3044 28.1978 17.2811 28.0453C17.2481 27.8291 16.9063 27.8907 16.9129 28.1027C16.9523 29.3522 17.2996 30.5925 17.8376 31.7115C18.1286 32.3167 18.4853 32.8819 18.8937 33.4062C18.7745 33.3545 18.6557 33.3026 18.5363 33.2518C17.7508 32.9174 16.9591 32.5985 16.1608 32.2975C15.7082 32.1266 15.2537 31.9531 14.7907 31.8137C14.5896 31.7531 14.528 32.0531 14.7119 32.1275C15.4442 32.4242 16.1927 32.6803 16.9275 32.9706C17.6678 33.2628 18.4037 33.566 19.1336 33.8846C19.2128 33.9191 19.3062 33.9572 19.3971 34.0036C19.4851 34.1005 19.575 34.1957 19.6664 34.2889C19.6745 34.3074 19.6818 34.3262 19.6899 34.3444C19.5429 34.3379 19.3959 34.3333 19.2489 34.3304C18.8391 34.3219 18.4289 34.3238 18.0192 34.3364C17.1927 34.3617 16.3679 34.4331 15.5486 34.5462C15.313 34.5788 15.0788 34.6185 14.8447 34.6604C14.614 34.7017 14.3762 34.7349 14.1508 34.8002C13.9873 34.8474 14.0195 35.1302 14.1975 35.111C14.4046 35.0885 14.6103 35.0424 14.8159 35.0092C15.0137 34.9776 15.2122 34.9519 15.4104 34.923C15.8161 34.8642 16.2233 34.8154 16.6315 34.7774C17.4407 34.7019 18.2544 34.6659 19.0671 34.6709C19.2964 34.6724 19.5257 34.6772 19.7548 34.6853C19.7752 34.686 19.7959 34.687 19.8163 34.6878C19.6855 34.812 19.5771 34.9643 19.4681 35.1087C19.0561 35.6547 18.7036 36.2473 18.4196 36.8726C18.2597 37.2243 18.1154 37.5888 18.0108 37.962C17.9558 38.1583 18.2403 38.2241 18.3063 38.0396C18.5612 37.3267 18.8576 36.6409 19.2543 35.9973C19.4491 35.6813 19.6626 35.3772 19.8935 35.0876C19.984 34.9742 20.0687 34.8645 20.2003 34.7998C20.6658 35.2192 21.1497 35.6164 21.597 36.0569C22.007 36.4606 22.3662 36.9178 22.6803 37.4023C23.3216 38.3915 23.7521 39.4947 24.0612 40.6346C24.2901 41.4793 24.449 42.3387 24.5716 43.2045C24.515 43.5453 24.4902 43.89 24.5013 44.2362C24.4722 44.3504 24.4425 44.4644 24.4164 44.5799C24.263 45.2584 24.1667 45.9515 24.1177 46.646C24.0694 47.3253 24.0791 48.0067 24.1223 48.6862C24.1621 49.31 24.2198 49.9495 24.392 50.5519C24.5672 51.1652 24.8855 51.7494 25.44 52.079C25.6186 52.185 25.9164 52.0428 25.8841 51.8079C25.8789 51.7691 25.8721 51.7309 25.8661 51.6926C25.9727 51.6603 26.0643 51.5472 26.0178 51.4307C25.8126 50.918 25.5903 50.4069 25.4264 49.8778C25.2612 49.3455 25.1449 48.7961 25.083 48.2414C24.9756 47.2773 25.008 46.3014 25.1396 45.3415C25.1575 45.3086 25.1673 45.2709 25.1642 45.2299C25.1631 45.2167 25.1621 45.2036 25.1611 45.1902C25.1788 45.0712 25.1972 44.9525 25.2176 44.834C25.5177 43.11 26.1202 41.4774 26.7816 39.8699C27.1026 39.4551 27.4521 39.0624 27.8207 38.689C28.4011 38.101 29.0317 37.5589 29.7361 37.1317C30.4899 36.6744 31.3145 36.4219 32.1777 36.2894C32.7296 36.2044 33.2863 36.1794 33.8436 36.1725C33.8611 36.253 33.9516 36.3205 34.0353 36.2796C34.0675 36.9767 34.0467 37.663 33.9121 38.3543C33.7585 39.143 33.4741 39.8742 33.1225 40.59C33.0375 40.7631 33.2799 40.9027 33.3792 40.7374C33.707 40.1905 33.9362 39.5737 34.0987 38.9556C34.2624 38.3332 34.351 37.689 34.3623 37.0442C34.3651 36.882 34.3625 36.7195 34.3544 36.5574C34.764 36.9704 35.162 37.394 35.5339 37.8436C35.9592 38.358 36.3504 38.8998 36.7146 39.461C36.8179 39.6201 36.9186 39.7811 37.0166 39.9439C37.1174 40.1109 37.2055 40.2905 37.3169 40.4503C37.3628 40.5164 37.44 40.5468 37.515 40.5129C37.5797 40.4838 37.6347 40.3949 37.6031 40.3209C37.4673 40.0026 37.2655 39.7033 37.0824 39.4113C36.901 39.1218 36.7092 38.839 36.5097 38.5621C36.1061 38.0019 35.6702 37.4657 35.2043 36.9589C35.1108 36.8572 35.0155 36.7569 34.9194 36.6577C35.1223 36.7441 35.3262 36.828 35.5295 36.913C35.9571 37.0913 36.3846 37.27 36.8121 37.4486C37.6304 37.7904 38.4448 38.1657 39.2928 38.425C39.758 38.5674 40.2477 38.6811 40.7359 38.6767C40.9316 38.675 40.9141 38.3952 40.7306 38.3745C40.3097 38.3279 39.8961 38.2558 39.4878 38.1385C39.0777 38.0207 38.6777 37.8695 38.2819 37.7098C37.4457 37.3721 36.6148 37.0202 35.7817 36.6748C35.5516 36.5793 35.3215 36.4833 35.0912 36.3887C35.0123 36.3563 34.9332 36.3245 34.8544 36.2927C34.9717 36.2556 35.0868 36.2142 35.2002 36.1694C36.92 36.1604 38.6872 36.0702 40.3023 35.4209C41.6712 34.8706 42.9808 33.8906 43.6346 32.5107C43.714 32.3432 43.782 32.1699 43.8423 31.9943C43.8994 31.8264 43.6455 31.7681 43.5839 31.9265Z" fill="#3A3C6B"/>
<path d="M24.469 12.2839C23.0616 11.0849 21.9111 9.5941 21.1428 7.88759C20.9554 7.47151 20.7886 7.03588 20.7568 6.579C20.6658 5.27001 21.6827 4.1541 22.7623 3.45141C25.39 1.74081 28.8521 1.4636 31.7096 2.73515C32.1334 2.92387 32.558 3.1554 32.8411 3.52995C33.5178 4.42419 33.1489 5.7208 32.6776 6.74336C31.7433 8.77064 30.2014 10.3667 29.1867 12.2716C29.5204 11.6457 31.9761 9.95786 32.679 9.52188C33.1731 9.21533 33.8157 9.09401 34.3302 9.36355C34.8514 9.63651 35.1248 10.2298 35.3286 10.7923C35.6297 11.6231 35.8636 12.5094 35.7533 13.3881C35.6431 14.2667 35.1214 15.1372 34.3052 15.4266C33.0893 15.8573 31.2245 15.14 29.9132 15.0818C32.2192 15.1841 34.4037 16.7568 35.2823 18.9468C36.1609 21.1369 35.6881 23.8298 34.1195 25.5654C32.1372 27.7588 28.9477 28.2037 26.0316 28.276C23.6987 28.3336 21.0823 28.1124 19.5291 26.3239C17.2465 23.6954 18.7809 19.5106 21.2063 17.5906C22.2351 16.7762 23.4499 16.2534 24.6491 15.74C23.7772 16.0369 22.9053 16.3337 22.0333 16.6306C21.5904 16.7815 21.1059 16.9323 20.6678 16.7669C20.0483 16.5331 19.7934 15.7795 19.7067 15.1086C19.5723 14.0691 19.6884 12.9162 20.3794 12.1441C21.3711 11.0357 23.3552 11.6601 24.469 12.2839Z" fill="#FCBFD4"/>
<path d="M25.2405 15.9018C24.7331 16.4351 23.9772 16.8008 23.319 17.1714C22.2868 17.7524 21.3387 18.5385 20.7239 19.5683C20.2803 20.311 19.7094 21.814 20.1244 22.6874C20.6046 23.6984 21.4038 22.8987 21.9334 23.6201C22.1675 23.9391 21.9369 24.4206 22.0958 24.785C22.3251 25.3107 23.0835 25.1848 23.5934 24.9447C24.1033 24.7046 24.8075 24.48 25.1403 24.9444C25.2663 25.1203 25.2937 25.3551 25.4196 25.531C25.6556 25.8603 26.1642 25.8577 26.4983 25.6357C26.8324 25.4138 27.034 25.0385 27.2221 24.6785C28.123 25.3893 29.6269 25.0188 30.1138 23.9664C30.3247 23.5109 30.359 22.9844 30.5803 22.5344C30.8016 22.084 31.3456 21.7181 31.7748 21.9646C32.0176 22.1039 32.1456 22.3967 32.3841 22.5432C32.7243 22.752 33.1928 22.5814 33.4342 22.2592C33.6756 21.9369 33.7355 21.5097 33.7394 21.1033C33.7565 19.3085 32.7026 17.3467 31.0857 16.5681C29.5298 15.8187 28.0914 15.8328 29.1679 13.3811C28.7686 13.3422 28.4982 12.9048 28.4899 12.4933C28.4816 12.0821 28.6654 11.6956 28.845 11.3281C29.4877 10.0128 30.1303 8.6979 30.7727 7.38266C30.6103 7.21657 30.4483 7.05077 30.2859 6.88467C29.4052 7.58597 28.7203 8.54285 28.3311 9.61449C27.9252 9.39918 27.9775 8.80057 28.0495 8.33775C28.1218 7.87493 28.0304 7.23807 27.5767 7.18335C27.5247 7.78963 27.3087 8.38045 26.9589 8.87172C26.6343 8.24835 26.3097 7.6247 25.9851 7.00133C25.9205 6.87725 25.8419 6.74129 25.7097 6.7052C25.3875 6.61689 25.2729 7.12829 25.3277 7.46576C25.4566 8.26025 25.5856 9.05446 25.7145 9.84895C25.1404 9.66048 24.6168 9.31255 24.2142 8.85208C24.216 9.28851 24.2178 9.72494 24.2194 10.1614C23.7907 9.79408 23.3623 9.42649 22.9337 9.05919C22.4958 11.2934 26.2451 12.6865 25.7801 14.915C25.6988 15.305 25.5029 15.6259 25.2405 15.9018Z" fill="#E6528A"/>
<path d="M23.4966 18.5144L23.4956 18.5154L23.4966 18.5144Z" fill="#3A3C6B"/>
<path d="M23.4928 18.5174C23.4947 18.5168 23.496 18.5154 23.498 18.5147C23.4781 18.5239 23.4762 18.525 23.4928 18.5174Z" fill="#3A3C6B"/>
<path d="M32.1815 13.9266C32.1438 13.846 32.0847 13.772 32.0155 13.7177C31.8535 13.5912 31.6518 13.525 31.447 13.5519C31.2477 13.5781 31.04 13.6523 30.9099 13.8187C30.8392 13.9088 30.7859 14.0075 30.7666 14.1183C30.7333 14.1277 30.6998 14.1372 30.6666 14.1472C30.3388 14.2486 30.0061 14.3382 29.6737 14.4231C29.341 14.508 29.0057 14.578 28.6689 14.6446C28.5728 14.6637 28.4761 14.6814 28.3794 14.6999C28.3793 14.611 28.3717 14.5219 28.355 14.4348C28.5065 14.3244 28.6497 14.2014 28.78 14.066C28.9703 13.8678 29.1369 13.6469 29.277 13.4088C29.2884 13.3895 29.299 13.3692 29.3099 13.3492C29.3559 13.362 29.4047 13.3688 29.4515 13.3662C29.53 13.3616 29.5965 13.3422 29.6661 13.3058C29.7146 13.2805 29.7568 13.2419 29.7856 13.1942C29.824 13.1309 29.8149 13.0564 29.8108 12.9861C29.8071 12.9204 29.803 12.8543 29.7993 12.7882C29.7952 12.7203 29.7915 12.6525 29.7874 12.5846C29.785 12.5436 29.7834 12.5026 29.7775 12.462C29.7645 12.3739 29.7087 12.3111 29.6346 12.2695C29.5256 12.2085 29.4059 12.197 29.2857 12.223C29.1954 12.2426 29.1134 12.2925 29.0421 12.3507C28.9675 12.412 28.904 12.4866 28.8589 12.5736C28.8327 12.624 28.8104 12.679 28.7975 12.7347C28.7788 12.8154 28.782 12.8862 28.7952 12.9666C28.8004 12.9984 28.8101 13.0298 28.8224 13.06C28.8118 13.0767 28.8014 13.0937 28.7911 13.1105C28.7233 13.2177 28.6833 13.2715 28.6079 13.3685C28.531 13.4673 28.4489 13.5617 28.3621 13.6512C28.275 13.7414 28.1949 13.8183 28.1123 13.8898C28.1035 13.8781 28.093 13.8685 28.0839 13.8575C28.1049 13.7939 28.1254 13.7301 28.1453 13.6659C28.2325 13.3827 28.3153 13.0975 28.3941 12.8117C28.471 12.5325 28.539 12.2534 28.6072 11.9723C28.6336 11.8646 28.6501 11.7563 28.6713 11.6481C28.7084 11.6339 28.7453 11.6176 28.7815 11.596C28.9393 11.502 29.0683 11.3394 29.1103 11.1556C29.2087 10.7236 28.8229 10.288 28.3922 10.384C28.2004 10.4269 28.0518 10.6038 27.9983 10.7907C27.9712 10.8857 27.9698 10.99 27.9925 11.0858C28.0012 11.1223 28.0191 11.1586 28.0424 11.1919C28.0477 11.314 28.0812 11.4339 28.1563 11.5325C28.1586 11.5357 28.161 11.538 28.1633 11.5412C28.135 11.6137 28.1069 11.686 28.0828 11.7608C27.9925 12.0441 27.9012 12.3248 27.819 12.6112C27.7394 12.8887 27.6643 13.1676 27.5911 13.4467C27.5873 13.4609 27.5838 13.4752 27.5803 13.4894C27.516 13.464 27.4492 13.4462 27.3819 13.4314C27.3019 13.1387 27.2154 12.8482 27.1263 12.5582C27.0302 12.2451 26.9235 11.9372 26.8174 11.6278C26.7768 11.5095 26.7267 11.3955 26.6801 11.2796C26.7569 11.2118 26.8225 11.1274 26.8641 11.0346C26.8924 10.9712 26.918 10.9052 26.9289 10.8359C26.9442 10.7382 26.9431 10.6602 26.927 10.5634C26.9055 10.4332 26.8306 10.2995 26.7296 10.2174C26.6081 10.1188 26.4731 10.0695 26.3184 10.0625C26.1825 10.0563 26.0329 10.0958 25.92 10.1742C25.8818 10.2006 25.8492 10.2283 25.8195 10.2592C25.7486 10.2681 25.6769 10.3193 25.6455 10.3824C25.5045 10.6663 25.5787 10.9961 25.7831 11.2255C25.8882 11.3436 26.0308 11.4161 26.1797 11.4363C26.2046 11.5486 26.2259 11.6617 26.2572 11.7725C26.3418 12.0725 26.4248 12.3714 26.5174 12.6689C26.5964 12.9221 26.6776 13.1747 26.7635 13.4257C26.6435 13.446 26.527 13.4859 26.419 13.5456C26.2851 13.4638 26.1502 13.3834 26.015 13.3052C25.8021 13.1822 25.59 13.053 25.3724 12.9395C25.3353 12.9201 25.2969 12.8989 25.2582 12.8774C25.2531 12.6814 25.1738 12.4737 25.0194 12.3515C24.9566 12.3018 24.9133 12.2772 24.8391 12.248C24.789 12.2282 24.74 12.2235 24.6863 12.2176C24.6062 12.209 24.5217 12.2196 24.4447 12.2413C24.245 12.2976 24.0842 12.4504 24.0177 12.6509C23.9862 12.7454 23.9886 12.8667 24.0196 12.9613C24.0579 13.0772 24.129 13.1616 24.2252 13.2311C24.2585 13.2551 24.2957 13.2742 24.3348 13.2892C24.3946 13.3702 24.4707 13.4407 24.5612 13.4828C24.7037 13.5486 24.8946 13.5854 25.024 13.4757C25.0379 13.4837 25.0522 13.492 25.0658 13.5C25.2636 13.6189 25.4687 13.7266 25.6705 13.8389C25.7734 13.8961 25.8771 13.9531 25.9814 14.0089C25.9291 14.1149 25.8931 14.2289 25.8727 14.3462C25.8626 14.3449 25.8528 14.343 25.843 14.342C25.5193 14.3028 25.197 14.2552 24.8746 14.2068C24.3946 14.1345 23.9186 14.0412 23.4398 13.9639C23.3768 13.7207 23.167 13.5097 22.93 13.4515C22.7831 13.4154 22.6439 13.4379 22.5086 13.5008C22.3955 13.5532 22.3098 13.643 22.2385 13.7449C22.0967 13.9485 22.0655 14.2568 22.2045 14.4702C22.2186 14.4918 22.2348 14.5104 22.2507 14.5294C22.3046 14.6336 22.3859 14.7222 22.4898 14.775C22.7044 14.8841 22.9771 14.8552 23.17 14.7101C23.2323 14.6632 23.29 14.6082 23.337 14.545C23.7964 14.6756 24.2679 14.7598 24.7409 14.8284C25.082 14.8777 25.4254 14.9127 25.769 14.9381C25.7958 14.94 25.8226 14.9401 25.8497 14.9417C25.86 14.9882 25.8731 15.034 25.8909 15.0792C25.9066 15.1194 25.9251 15.158 25.945 15.1955C25.9577 15.2463 25.9741 15.2963 25.9926 15.3458C25.9399 15.3961 25.8869 15.4457 25.8343 15.4959C25.5678 15.7516 25.2953 16.002 25.0189 16.246C24.7515 16.4819 24.4836 16.7201 24.208 16.9449C24.0766 17.052 23.9519 17.1658 23.8205 17.2718C23.6363 17.127 23.3857 17.0466 23.1591 17.1306C22.8954 17.2285 22.7403 17.4769 22.7291 17.7594C22.7271 17.8126 22.7316 17.8692 22.7423 17.926C22.737 17.9666 22.7409 18.009 22.7584 18.0545C22.7861 18.1269 22.819 18.1816 22.8693 18.2401C22.9398 18.3221 23.0334 18.3742 23.1316 18.4118C23.1571 18.4214 23.1831 18.4292 23.2097 18.4356C23.2209 18.4983 23.2802 18.5666 23.3494 18.5563C23.3802 18.5516 23.4112 18.5481 23.4406 18.5376C23.4475 18.5351 23.4541 18.5323 23.4609 18.5295C23.4724 18.5243 23.4838 18.5191 23.4949 18.5142C23.5481 18.492 23.5944 18.4572 23.6328 18.4134L23.6334 18.4128C23.8454 18.3401 24.0251 18.1781 24.0731 17.946C24.0888 17.8701 24.0892 17.793 24.0784 17.7182C24.2213 17.628 24.3647 17.544 24.5037 17.4442C24.8292 17.2097 25.1439 16.965 25.4444 16.6966C25.7298 16.4416 26.0003 16.1717 26.2582 15.8875C26.2805 15.8626 26.3019 15.8369 26.3239 15.8117C26.3744 15.8522 26.4283 15.8884 26.4847 15.9205C26.4782 15.9301 26.4718 15.9396 26.4656 15.9492C26.3934 16.0647 26.324 16.1811 26.2631 16.3035C26.1268 16.5776 26.012 16.8637 25.9221 17.1573C25.8344 17.4438 25.7639 17.7439 25.7409 18.0437C25.7337 18.1401 25.7258 18.2356 25.7197 18.3308C25.4815 18.4041 25.2768 18.6016 25.2442 18.8618C25.2295 18.9787 25.235 19.094 25.2752 19.2061C25.3155 19.318 25.3686 19.4092 25.4475 19.497C25.5271 19.5854 25.6265 19.6448 25.7355 19.6863C25.8491 19.7295 25.9633 19.7252 26.0804 19.7066C26.1016 19.6971 26.123 19.6872 26.1441 19.6777C26.1752 19.6598 26.1998 19.6357 26.2183 19.6053C26.2419 19.573 26.2557 19.5393 26.264 19.5029C26.3349 19.4777 26.3996 19.4388 26.4541 19.3794C26.5245 19.3023 26.5779 19.2001 26.5963 19.0958C26.6343 18.8813 26.5799 18.6664 26.4335 18.5059C26.3962 18.4652 26.3536 18.432 26.3082 18.4045C26.3175 18.3083 26.3294 18.2124 26.3487 18.1176C26.4055 17.842 26.4526 17.568 26.5319 17.2976C26.605 17.048 26.6943 16.8037 26.8037 16.5685C26.8683 16.4295 26.9446 16.2941 27.0011 16.1543C27.0023 16.2405 27.0053 16.3267 27.0111 16.4131C27.0355 16.7756 27.0902 17.1379 27.1743 17.4911C27.2911 17.9802 27.4734 18.4704 27.7315 18.9071C27.7201 18.9165 27.7079 18.9247 27.6968 18.9349C27.6509 18.9779 27.6136 19.0329 27.5826 19.0881C27.5271 19.1871 27.5179 19.3042 27.5445 19.4136C27.5755 19.5415 27.6557 19.6485 27.7589 19.7232C27.7648 19.799 27.8163 19.8784 27.8808 19.9115C27.9612 19.953 28.0454 19.9769 28.1358 19.9768C28.227 19.9767 28.3091 19.9475 28.3902 19.9089C28.5144 19.8497 28.6218 19.7386 28.6877 19.6164C28.7629 19.476 28.7919 19.3027 28.7431 19.1477C28.6983 19.0046 28.5965 18.8768 28.4624 18.8129C28.4125 18.7893 28.3604 18.774 28.3075 18.7634C28.2315 18.5964 28.157 18.4293 28.0876 18.2616C27.9596 17.9523 27.8627 17.633 27.7837 17.3072C27.7056 16.9863 27.6588 16.6957 27.6344 16.3713C27.695 16.4795 27.7588 16.5862 27.8285 16.6886C28.0102 16.9556 28.2146 17.209 28.4388 17.4399C28.6598 17.6676 28.9008 17.8686 29.1627 18.0448C29.2095 18.0765 29.2573 18.1057 29.3052 18.1339C29.2968 18.1621 29.2901 18.1911 29.2863 18.221C29.2805 18.2663 29.2756 18.3021 29.2822 18.3463C29.2851 18.366 29.2875 18.3855 29.2921 18.4046C29.2968 18.4243 29.3037 18.4431 29.3115 18.4615C29.3331 18.5122 29.3543 18.5529 29.3992 18.587C29.4068 18.5928 29.4152 18.5979 29.4237 18.6031C29.4303 18.6189 29.4372 18.6351 29.4458 18.6523C29.4694 18.6998 29.5044 18.7429 29.5402 18.7809C29.6152 18.8611 29.7152 18.9155 29.8182 18.9465C29.9282 18.9794 30.0381 18.976 30.1491 18.9555C30.2561 18.9356 30.3533 18.8755 30.4326 18.8009C30.5119 18.7262 30.572 18.6115 30.5944 18.5039C30.6432 18.2677 30.5709 18.0336 30.4164 17.8553C30.2572 17.6714 29.9861 17.607 29.7614 17.6841C29.7503 17.6879 29.7394 17.6934 29.7286 17.6977C29.6594 17.6449 29.59 17.5914 29.5215 17.5389C29.3239 17.3876 29.0866 17.1779 28.8943 16.9828C28.6892 16.7746 28.5266 16.5787 28.3704 16.3508C28.2883 16.2311 28.2093 16.1094 28.1361 15.984C28.0838 15.8945 28.0344 15.797 27.9663 15.7226C28.0831 15.8201 28.2098 15.9038 28.3398 15.9816C28.6007 16.1371 28.8835 16.2595 29.1679 16.3612C29.4408 16.4589 29.7223 16.5266 30.0089 16.5657C30.0657 16.5735 30.1179 16.5762 30.1688 16.5776C30.1939 16.7754 30.3139 16.9608 30.4891 17.0514C30.6587 17.1391 30.863 17.1524 31.0443 17.0958C31.2203 17.0407 31.394 16.9146 31.4704 16.7378C31.5158 16.6328 31.544 16.5201 31.5291 16.4043C31.5141 16.2882 31.4816 16.176 31.4129 16.08C31.3424 15.9814 31.2615 15.9001 31.1574 15.8387C31.055 15.7782 30.9487 15.7511 30.8328 15.7407C30.6356 15.7229 30.4433 15.8219 30.3178 15.9756C30.2629 15.9618 30.2074 15.9477 30.1459 15.9375C29.874 15.8929 29.6054 15.8252 29.3431 15.7389C29.0947 15.6569 28.8753 15.5571 28.6394 15.4327C28.5563 15.389 28.4752 15.342 28.3932 15.2959C28.7556 15.2775 29.121 15.2014 29.4738 15.1259C29.8535 15.0446 30.2224 14.9384 30.588 14.8074C30.7113 14.7633 30.8319 14.7166 30.9508 14.6646C30.9798 14.6919 31.0113 14.7179 31.0456 14.7401C31.0944 14.8116 31.1576 14.8725 31.2366 14.9131C31.4481 15.0219 31.7022 15.0012 31.8973 14.8638C32.0684 14.7433 32.2136 14.5515 32.2413 14.3351C32.2484 14.2795 32.2557 14.2247 32.2493 14.1687C32.2391 14.0762 32.2206 14.01 32.1815 13.9266Z" fill="#3A3C6B"/>
<path d="M27.1406 14.6875C27.1412 14.6875 27.1417 14.6875 27.1424 14.6874C27.1415 14.6867 27.1407 14.6866 27.1406 14.6875Z" fill="#3A3C6B"/>
<path d="M27.6947 14.5963C27.6562 14.485 27.5938 14.3724 27.5027 14.2975C27.3949 14.209 27.2681 14.1507 27.1269 14.1582C26.9797 14.1661 26.8507 14.2285 26.7433 14.3302C26.561 14.5026 26.4732 14.8021 26.5537 15.0461C26.5792 15.1233 26.6279 15.1927 26.6862 15.2481C26.7438 15.3029 26.8216 15.3232 26.8939 15.308C26.9752 15.3485 27.0651 15.3685 27.157 15.3596C27.1682 15.3585 27.1785 15.3553 27.1895 15.354C27.4296 15.3722 27.6594 15.1999 27.7136 14.9524C27.7392 14.8362 27.7335 14.7087 27.6947 14.5963Z" fill="#FFDC52"/>
</svg>
