<svg width="66" height="62" viewBox="0 0 66 62" fill="none" xmlns="http://www.w3.org/2000/svg">
<path d="M1.18662 35.3544L1.20673 34.8516C1.50171 34.7041 1.9911 34.5767 2.67491 34.4695C3.37213 34.3488 3.84812 34.2348 4.10287 34.1275C4.37103 34.0069 4.59227 33.8527 4.76657 33.665C4.88725 33.075 4.94758 32.0091 4.94758 30.4671L4.66601 14.8199L4.72635 12.2254C4.72635 11.6891 4.62579 11.3204 4.42467 11.1193C4.23695 10.9182 3.73415 10.7371 2.91626 10.5763C2.09836 10.4019 1.61567 10.2612 1.46818 10.1539C1.3207 10.0466 1.24695 9.93266 1.24695 9.81199C1.24695 9.74495 1.26706 9.6578 1.30729 9.55053C1.48159 9.44327 1.6626 9.38964 1.85032 9.38964C2.05144 9.38964 2.46038 9.40304 3.07715 9.42986H3.64029C3.82801 9.42986 4.35763 9.41645 5.22915 9.38964H8.02474L13.7969 9.28908L19.911 9.04773H20.454L21.3188 9.02762C21.5602 9.02762 21.7747 9.09466 21.9624 9.22874C22.0429 9.44327 22.0898 9.59746 22.1032 9.69132L22.0831 10.4958L22.2641 14.0959C22.2641 14.2434 22.2507 14.4311 22.2239 14.659C22.0094 14.7529 21.8149 14.7998 21.6406 14.7998C21.52 14.7998 21.4261 14.7596 21.3591 14.6791C21.2518 14.5316 21.1848 14.2501 21.158 13.8344C21.1043 13.2579 20.8965 12.5137 20.5345 11.602C20.3602 11.1729 20.0719 10.8779 19.6697 10.717C18.8652 10.4087 17.511 10.2545 15.607 10.2545C14.7087 10.2545 13.8707 10.2813 13.093 10.3349C12.3153 10.3751 11.8393 10.3952 11.665 10.3952L10.0963 10.3751C9.4527 10.3751 8.92308 10.469 8.50743 10.6567C8.22586 10.7774 8.08507 11.0656 8.08507 11.5215V11.8232C8.1253 12.507 8.14541 13.2646 8.14541 14.0959L8.08507 19.5664C8.08507 20.1027 8.1253 20.6122 8.20575 21.0949L8.789 21.1351L9.91528 21.0748H13.7567C15.2986 21.0748 16.3713 20.9675 16.9746 20.753C17.3769 20.6055 17.6786 20.3843 17.8797 20.0893C17.9467 19.9954 18.1143 19.4658 18.3825 18.5004L18.6439 16.8311C18.8048 16.7507 18.9255 16.7104 19.006 16.7104C19.073 16.7104 19.1803 16.744 19.3277 16.811C19.3814 17.1194 19.4149 17.5887 19.4283 18.2189L19.6697 25.6201C19.4417 25.714 19.2674 25.7609 19.1467 25.7609L18.9255 25.7207C18.711 24.3799 18.3758 23.3273 17.9199 22.5631C17.759 22.2949 17.578 22.1407 17.3769 22.1005C17.0283 22.02 15.4327 21.9798 12.5902 21.9798C11.7053 21.9798 11.0952 21.9865 10.76 21.9999C9.9555 22.0402 9.47281 22.0603 9.31191 22.0603H9.11079C8.70855 22.0603 8.42027 22.1139 8.24597 22.2212C8.19234 22.3821 8.16552 22.496 8.16552 22.5631V23.9508C8.16552 24.1117 8.17223 24.7821 8.18563 25.962L8.14541 32.6191C8.14541 32.8069 8.19904 33.0415 8.30631 33.3231C8.58788 33.551 9.09738 33.7052 9.83483 33.7856C10.5857 33.8527 11.2896 34.027 11.9466 34.3086C12.322 34.4829 12.5097 34.6773 12.5097 34.8918C12.5097 34.9857 12.4829 35.0728 12.4293 35.1533C12.3757 35.2337 12.2818 35.294 12.1477 35.3343C11.0483 35.1063 9.52644 34.9924 7.58227 34.9924C6.54985 34.9924 5.45709 35.0862 4.30399 35.2739C3.51292 35.3946 2.60787 35.4549 1.58886 35.4549L1.18662 35.3544Z" fill="black"/>
<path d="M34.0402 50.3196L34.0604 49.8772C34.5162 49.6224 35.0459 49.4615 35.6492 49.3945C36.6012 49.2738 37.2046 49.1531 37.4593 49.0325C37.7141 48.8984 37.8951 48.7174 38.0023 48.4894C38.19 48.047 38.2839 47.5978 38.2839 47.1419L38.2437 45.6134L38.2638 44.2056L38.2236 42.5564C38.2236 41.8726 38.2437 41.0211 38.2839 40.0021C38.3241 38.9697 38.3442 38.42 38.3442 38.3529V32.8623C38.3442 31.9908 38.3644 31.0522 38.4046 30.0466C38.4448 29.0276 38.4649 28.3237 38.4649 27.9349C38.4649 26.7818 38.4381 26.1114 38.3845 25.9236C38.3308 25.7359 38.2303 25.6018 38.0828 25.5214C37.9353 25.4409 37.4526 25.3672 36.6347 25.3002C36.0045 25.2465 35.5688 25.1996 35.3274 25.1594C35.2604 25.0119 35.2269 24.8912 35.2269 24.7974C35.2269 24.6901 35.2336 24.5627 35.247 24.4152C35.5688 24.3884 35.8168 24.375 35.9911 24.375L37.8817 24.3951C39.2225 24.3951 40.6437 24.3415 42.1454 24.2342C42.8829 24.1806 43.9957 24.1337 45.484 24.0934C45.5109 24.2141 45.5243 24.3281 45.5243 24.4353C45.5243 24.5694 45.4907 24.6767 45.4237 24.7571C45.3701 24.8242 45.2695 24.8711 45.122 24.8979C43.3656 25.0454 42.3264 25.2666 42.0046 25.5616C41.6963 25.8432 41.5421 26.5739 41.5421 27.7538C41.5421 29.926 41.5756 32.1651 41.6426 34.4713L41.7231 36.3618C41.7901 36.4155 42.6616 36.4825 44.3377 36.563C44.7935 36.5898 45.0617 36.6032 45.1421 36.6032L48.0986 36.563L50.0495 36.6233L55.158 36.4624C55.7882 36.449 56.1703 36.4222 56.3044 36.3819C56.3848 34.0489 56.425 31.7897 56.425 29.6042C56.425 27.4991 56.3781 26.2588 56.2843 25.8834C56.2306 25.6555 56.1368 25.5013 56.0027 25.4208C55.9222 25.3806 55.225 25.2733 53.911 25.099C53.6831 25.0722 53.4686 25.0387 53.2674 24.9985C53.2004 24.7974 53.1669 24.5694 53.1669 24.3147C53.6227 24.2476 53.911 24.2141 54.0317 24.2141L55.3591 24.2946C56.5792 24.3616 57.8061 24.3951 59.0396 24.3951C59.8307 24.3951 61.1447 24.3281 62.9816 24.194C62.9682 24.4622 62.9347 24.7035 62.881 24.918C62.3715 25.1192 61.7615 25.2465 61.0508 25.3002C60.595 25.327 60.2128 25.4007 59.9044 25.5214C59.6497 25.7091 59.5223 26.0912 59.5223 26.6678C59.5223 26.8019 59.529 26.9494 59.5424 27.1103C59.5558 27.5929 59.5625 27.908 59.5625 28.0555V30.3684L59.5826 31.8165L59.5424 33.6869L59.5625 37.1864L59.5223 40.4848C59.5223 41.1418 59.5424 42.1675 59.5826 43.562L59.5625 46.2771C59.5625 47.1889 59.643 47.8391 59.8039 48.228C59.8843 48.4157 60.0184 48.5498 60.2061 48.6302L61.8352 48.9922C62.6397 49.1934 63.1157 49.361 63.2632 49.495C63.4241 49.6157 63.5045 49.7632 63.5045 49.9375L63.4442 50.1789L63.3436 50.199C63.2766 50.199 63.1894 50.1856 63.0822 50.1587C61.6207 49.8906 60.0854 49.7565 58.4765 49.7565C57.2161 49.7565 56.3178 49.7766 55.7815 49.8168C55.2585 49.8571 54.1591 50.0046 52.4831 50.2593C52.4562 50.085 52.4428 49.9576 52.4428 49.8772C52.4428 49.7833 52.4562 49.6559 52.4831 49.495C52.8987 49.2537 53.5557 49.0861 54.4541 48.9922C55.1245 48.9252 55.6541 48.7107 56.0429 48.3487C56.2977 48.1073 56.425 47.752 56.425 47.2827L56.4049 44.3866C56.4452 43.515 56.4653 43.0391 56.4653 42.9586C56.4653 41.8189 56.4452 40.1563 56.4049 37.9708C56.3647 37.7831 56.291 37.6691 56.1837 37.6289C55.8217 37.5082 54.0384 37.535 50.8339 37.7093C50.1903 37.7496 49.7076 37.7697 49.3858 37.7697C49.064 37.7697 48.3869 37.7563 47.3545 37.7295C46.3355 37.6892 45.3902 37.6691 44.5187 37.6691C44.0494 37.6691 43.6538 37.6758 43.332 37.6892C42.7153 37.7026 42.3734 37.7093 42.3063 37.7093C41.9979 37.7093 41.7834 37.7697 41.6627 37.8904C41.5555 38.011 41.5018 38.2323 41.5018 38.5541L41.522 39.9619C41.522 40.1898 41.4884 41.4569 41.4214 43.7631C41.408 44.2324 41.4013 44.6212 41.4013 44.9296C41.4013 46.7665 41.4683 47.9866 41.6024 48.59C41.6694 48.8716 41.7901 49.066 41.9644 49.1733C42.0851 49.2537 42.608 49.3945 43.5332 49.5956C44.1499 49.7297 44.6192 49.8571 44.941 49.9777L45.0617 50.1789C45.0617 50.2459 45.0349 50.2995 44.9812 50.3398C44.9008 50.4068 44.7868 50.4403 44.6393 50.4403C44.5321 50.4403 44.4047 50.4336 44.2572 50.4202C44.1097 50.4202 43.8214 50.4135 43.3924 50.4001C42.7086 50.3867 41.8572 50.3398 40.8381 50.2593C40.1811 50.2057 39.5979 50.1789 39.0884 50.1789C38.2303 50.1789 36.8559 50.2191 34.9654 50.2995C34.6034 50.3129 34.295 50.3196 34.0402 50.3196Z" fill="black"/>
<path d="M43.2544 28.0825C42.3448 26.6506 40.9013 25.4868 39.2338 25.1907C37.2752 24.843 35.4504 25.8063 33.8762 26.8973C33.4743 27.1757 33.0772 27.4634 32.6892 27.7619C32.3048 28.0575 31.9298 28.3722 31.6069 28.7386C31.2976 29.0895 31.0382 29.4855 30.8624 29.9237C30.6893 30.3549 30.6128 30.8142 30.5909 31.2787C30.5469 32.208 30.7183 33.1086 31.1286 33.9417C31.5266 34.7495 32.1152 35.4521 32.7915 36.029C33.1251 36.3135 33.481 36.5693 33.8536 36.7969C33.9071 36.8296 33.9573 36.8149 33.9903 36.7803C34.0035 36.7927 34.017 36.8048 34.0288 36.8184C34.0321 36.8222 34.0354 36.8262 34.0385 36.8299C34.0469 36.8415 34.055 36.853 34.0626 36.8652C34.0774 36.8886 34.0913 36.9124 34.1033 36.9372C34.105 36.9405 34.1067 36.944 34.1081 36.9473L34.1074 36.9473C34.1031 36.9388 34.0993 36.9351 34.1067 36.9473C34.0995 36.9468 34.0925 36.9452 34.0851 36.9453C33.5541 36.9508 33.0073 36.9598 32.4985 37.1337C32.138 37.2569 31.8119 37.4621 31.5385 37.7321C31.0088 38.2553 30.7142 38.9877 30.6326 39.7288C30.5487 40.4902 30.7138 41.2633 31.1173 41.9102C31.5629 42.6243 32.2414 43.1677 32.997 43.4999C33.7928 43.8497 34.6582 43.9935 35.5211 43.9292C36.5414 43.8531 37.5184 43.5285 38.4419 43.0899C39.3102 42.6776 40.1473 42.1713 40.9222 41.596C41.6803 41.0332 42.3757 40.3862 42.9331 39.6118C43.5176 38.7995 43.8971 37.8565 44.1378 36.8814C44.3829 35.8883 44.5121 34.8551 44.5558 33.8325C44.6401 31.8555 44.3246 29.7676 43.2544 28.0825Z" fill="#AD8FD4"/>
<path d="M27.0304 30.1433C26.9124 28.8419 26.3264 27.5333 25.2505 26.6147C24.715 26.1574 24.0595 25.8137 23.3395 25.6316C22.3754 25.388 21.3477 25.4394 20.3732 25.6165C18.6959 25.9217 17.0648 26.5811 15.7174 27.5127C14.3447 28.462 13.2646 29.6939 12.6739 31.1424C12.0847 32.5872 12.0001 34.2195 12.57 35.6751C13.1031 37.0366 14.223 38.2688 15.7377 38.8682C17.2299 39.4588 19.0942 39.3877 20.4466 38.5278C21.1041 38.1096 21.5842 37.5371 21.8516 36.8656C22.108 36.222 22.1467 35.5006 21.9361 34.8448C21.9259 34.8128 21.9146 34.781 21.9028 34.7494C22.3609 34.9524 22.8937 35.0308 23.4063 34.9924C23.8047 34.9624 24.1924 34.8843 24.5706 34.7332C24.9349 34.5878 25.2683 34.3806 25.5538 34.1348C26.7279 33.1238 27.1575 31.543 27.0304 30.1433Z" fill="#AD8FD4"/>
<path d="M43.5837 31.9792C43.0306 33.401 41.8154 34.4575 40.4653 35.0553C39.0411 35.686 37.4767 35.8428 35.9333 35.871C37.3915 35.0444 38.5183 33.6197 39.407 32.2132C39.758 31.6579 40.0924 31.0898 40.4076 30.5123C40.5009 30.3416 40.2499 30.2002 40.1498 30.3645C39.5585 31.3336 39.0066 32.3265 38.3187 33.2297C37.6883 34.0576 36.9615 34.8178 36.0944 35.3867C35.811 35.5728 35.5135 35.7361 35.2063 35.8762C35.1763 35.8762 35.1462 35.8762 35.1162 35.8762C34.9408 35.8754 34.7657 35.8738 34.5904 35.8724C34.7458 35.7152 34.8901 35.5463 35.0239 35.3757C35.305 35.017 35.5476 34.628 35.7531 34.2192C36.1761 33.3776 36.4573 32.4673 36.6811 31.5516C36.8085 31.0298 36.9363 30.4998 37.0158 29.9676C37.0435 29.7832 36.7823 29.7063 36.736 29.894C36.625 30.3418 36.5463 30.7984 36.4412 31.2478C36.3354 31.7007 36.2172 32.1508 36.0769 32.5939C35.8042 33.4542 35.4422 34.3002 34.9119 35.0291C34.7818 35.2081 34.6396 35.3714 34.4905 35.5275C34.467 35.2522 34.4198 34.9754 34.3806 34.7072C34.3239 34.3191 34.2585 33.9322 34.1824 33.5474C34.0289 32.772 33.8368 32.0033 33.5998 31.2503C33.4639 30.8183 33.3202 30.3864 33.1483 29.9679C33.0771 29.7946 32.8028 29.8673 32.8671 30.0525C33.1243 30.7926 33.3754 31.5315 33.5758 32.2904C33.7775 33.0545 33.9387 33.8295 34.0588 34.6114C34.092 34.8287 34.1216 35.0466 34.1489 35.2648C34.1714 35.4437 34.1863 35.6243 34.2143 35.8022C34.1908 35.8243 34.1682 35.8471 34.1447 35.8689C33.5489 35.8656 32.9532 35.8696 32.3587 35.912C31.4582 35.9762 30.5694 36.1793 29.7544 36.5821C28.9845 36.9624 28.2946 37.4852 27.6698 38.079C27.6043 38.141 27.54 38.2043 27.4757 38.2676C27.5156 38.1729 27.5555 38.0785 27.5952 37.9838C28.0848 36.815 28.5596 35.6366 28.9302 34.4218C29.2648 33.3253 29.5034 32.1995 29.6423 31.0595C29.9181 28.7987 29.815 26.4952 29.338 24.2687C28.8653 22.062 28.0376 19.8873 26.8486 17.9784C26.7002 17.7403 26.541 17.5099 26.3783 17.2817C26.2486 17.0995 25.9622 17.2678 26.0812 17.4664C26.6602 18.4322 27.1975 19.4324 27.6333 20.4747C28.07 21.5195 28.4135 22.6023 28.6695 23.7078C29.1785 25.9059 29.3274 28.1817 29.1166 30.4296C29.0114 31.5506 28.8044 32.6633 28.505 33.7468C28.1713 34.9549 27.7216 36.1252 27.2435 37.2802C26.9124 38.0804 26.5656 38.8787 26.2329 39.6828C26.1493 39.7933 26.0671 39.9049 25.9875 40.0183C25.5006 40.7119 25.0724 41.4977 24.8016 42.3281C24.7302 41.8944 24.6468 41.4631 24.5456 41.0357C24.271 39.8774 23.8713 38.7517 23.3192 37.7002C23.0421 37.1726 22.7182 36.6734 22.3516 36.2067C21.9466 35.6915 21.4833 35.241 21.0019 34.8019C20.9793 34.7812 20.9564 34.7605 20.9338 34.7397C20.912 34.5993 20.8863 34.4588 20.8688 34.3186C20.8635 34.2751 20.8598 34.2316 20.8548 34.1884C21.5446 33.1999 22.4616 32.398 23.5595 31.9035C23.7361 31.824 23.9159 31.752 24.0987 31.6875C24.2884 31.6203 24.4852 31.575 24.6741 31.507C24.8327 31.45 24.8135 31.167 24.6265 31.1897C24.268 31.2329 23.9063 31.3691 23.5732 31.5072C23.2328 31.6483 22.9039 31.8209 22.5915 32.019C21.9712 32.412 21.409 32.9082 20.9436 33.4831C20.8971 33.5403 20.8534 33.5992 20.8091 33.658C20.8072 33.6274 20.8043 33.597 20.8027 33.5663C20.7784 33.0631 20.7934 32.5572 20.8485 32.0564C20.9567 31.0737 21.2178 30.0998 21.6191 29.2C21.849 28.6849 22.1213 28.1978 22.4322 27.7296C22.5372 27.5718 22.2888 27.4377 22.1825 27.5862C20.9965 29.2437 20.4137 31.3465 20.4744 33.392C20.4811 33.6213 20.4963 33.8504 20.5198 34.0785C20.4828 34.1378 20.4455 34.1968 20.4106 34.2572C20.1735 34.033 19.9424 33.803 19.7242 33.5585C19.5992 33.1998 19.4907 32.835 19.4006 32.4655C19.2005 31.6416 19.0993 30.8031 19.0736 29.9557C19.0591 29.4771 19.086 29.0042 19.1147 28.5269C19.1253 28.3491 18.8316 28.3106 18.8065 28.4898C18.6553 29.5708 18.7215 30.6949 18.9072 31.7667C18.9692 32.1238 19.0488 32.4776 19.1431 32.8273C18.9427 32.5463 18.7542 32.2542 18.5812 31.9527C17.9787 30.904 17.5723 29.7504 17.3558 28.555C17.3283 28.4031 17.3042 28.2506 17.2809 28.0981C17.2479 27.8819 16.906 27.9434 16.9127 28.1554C16.9521 29.405 17.2994 30.6453 17.8374 31.7642C18.1283 32.3695 18.4851 32.9347 18.8934 33.4589C18.7743 33.4073 18.6554 33.3554 18.536 33.3046C17.7505 32.9702 16.9589 32.6512 16.1606 32.3502C15.708 32.1794 15.2534 32.0059 14.7904 31.8665C14.5893 31.8058 14.5278 32.1059 14.7116 32.1803C15.4439 32.4769 16.1924 32.7331 16.9273 33.0234C17.6675 33.3155 18.4034 33.6187 19.1334 33.9374C19.2125 33.9719 19.306 34.01 19.3969 34.0564C19.4849 34.1532 19.5747 34.2484 19.6662 34.3416C19.6743 34.3601 19.6816 34.3789 19.6897 34.3971C19.5426 34.3907 19.3956 34.3861 19.2486 34.3832C18.8388 34.3747 18.4286 34.3766 18.0189 34.3892C17.1925 34.4145 16.3676 34.4858 15.5484 34.599C15.3127 34.6316 15.0786 34.6713 14.8444 34.7132C14.6137 34.7545 14.376 34.7876 14.1505 34.8529C13.987 34.9002 14.0193 35.183 14.1972 35.1637C14.4044 35.1412 14.61 35.0952 14.8156 35.062C15.0135 35.0303 15.212 35.0047 15.4101 34.9758C15.8158 34.9169 16.2231 34.8682 16.6313 34.8301C17.4405 34.7547 18.2541 34.7186 19.0669 34.7237C19.2961 34.7252 19.5255 34.73 19.7546 34.738C19.775 34.7388 19.7956 34.7398 19.816 34.7405C19.6852 34.8647 19.5768 35.0171 19.4678 35.1615C19.0558 35.7074 18.7034 36.3 18.4193 36.9254C18.2594 37.277 18.1151 37.6416 18.0106 38.0147C17.9555 38.2111 18.2401 38.2768 18.306 38.0923C18.561 37.3795 18.8574 36.6936 19.254 36.0501C19.4488 35.734 19.6623 35.43 19.8932 35.1404C19.9837 35.027 20.0684 34.9173 20.2 34.8525C20.6655 35.2719 21.1494 35.6691 21.5968 36.1097C22.0068 36.5134 22.3659 36.9705 22.68 37.4551C23.3214 38.4442 23.7518 39.5475 24.0609 40.6873C24.2898 41.5321 24.4487 42.3915 24.5713 43.2573C24.5148 43.5981 24.4899 43.9427 24.501 44.2889C24.4719 44.4032 24.4422 44.5171 24.4161 44.6327C24.2627 45.3111 24.1665 46.0042 24.1174 46.6987C24.0691 47.3781 24.0788 48.0595 24.122 48.7389C24.1618 49.3628 24.2196 50.0022 24.3917 50.6046C24.567 51.2179 24.8852 51.8021 25.4398 52.1318C25.6183 52.2377 25.9161 52.0955 25.8839 51.8607C25.8786 51.8219 25.8718 51.7836 25.8658 51.7454C25.9725 51.7131 26.0641 51.6 26.0176 51.4835C25.8124 50.9707 25.5901 50.4597 25.4262 49.9306C25.2609 49.3982 25.1446 48.8489 25.0827 48.2942C24.9753 47.33 25.0077 46.3541 25.1393 45.3943C25.1572 45.3614 25.167 45.3237 25.1639 45.2826C25.1629 45.2695 25.1618 45.2563 25.1608 45.2429C25.1786 45.124 25.1969 45.0052 25.2174 44.8868C25.5175 43.1627 26.12 41.5302 26.7814 39.9226C27.1023 39.5079 27.4518 39.1151 27.8204 38.7418C28.4009 38.1537 29.0314 37.6117 29.7359 37.1845C30.4896 36.7272 31.3143 36.4747 32.1774 36.3421C32.7294 36.2572 33.2861 36.2322 33.8434 36.2252C33.8608 36.3058 33.9513 36.3732 34.035 36.3323C34.0673 37.0295 34.0465 37.7158 33.9118 38.4071C33.7582 39.1957 33.4739 39.9269 33.1222 40.6428C33.0373 40.8158 33.2797 40.9555 33.3789 40.7902C33.7067 40.2432 33.936 39.6265 34.0984 39.0084C34.2622 38.3859 34.3507 37.7418 34.362 37.097C34.3648 36.9347 34.3623 36.7722 34.3541 36.6102C34.7637 37.0231 35.1617 37.4468 35.5336 37.8963C35.959 38.4107 36.3502 38.9526 36.7144 39.5138C36.8177 39.6729 36.9183 39.8339 37.0164 39.9966C37.1171 40.1637 37.2052 40.3433 37.3166 40.5031C37.3625 40.5691 37.4397 40.5996 37.5147 40.5657C37.5794 40.5366 37.6344 40.4477 37.6028 40.3737C37.467 40.0554 37.2653 39.7561 37.0822 39.4641C36.9007 39.1746 36.7089 38.8918 36.5095 38.6149C36.1059 38.0546 35.67 37.5185 35.204 37.0117C35.1106 36.91 35.0153 36.8097 34.9192 36.7105C35.122 36.7969 35.3259 36.8807 35.5293 36.9657C35.9568 37.1441 36.3843 37.3228 36.8119 37.5014C37.6302 37.8432 38.4445 38.2184 39.2925 38.4778C39.7578 38.6201 40.2475 38.7338 40.7356 38.7295C40.9313 38.7277 40.9138 38.4479 40.7304 38.4273C40.3094 38.3806 39.8958 38.3086 39.4876 38.1913C39.0775 38.0734 38.6775 37.9223 38.2816 37.7625C37.4454 37.4249 36.6146 37.0729 35.7814 36.7276C35.5514 36.6321 35.3212 36.5361 35.0909 36.4414C35.012 36.4091 34.9329 36.3773 34.8541 36.3455C34.9714 36.3084 35.0865 36.2669 35.2 36.2222C36.9198 36.2131 38.687 36.123 40.3021 35.4736C41.6709 34.9234 42.9805 33.9434 43.6343 32.5634C43.7137 32.396 43.7818 32.2227 43.842 32.0471C43.8991 31.8792 43.6453 31.8208 43.5837 31.9792Z" fill="#3A3C6B"/>
<path d="M24.469 12.3366C23.0616 11.1376 21.911 9.64678 21.1427 7.94026C20.9553 7.52418 20.7886 7.08855 20.7567 6.63167C20.6658 5.32268 21.6826 4.20677 22.7623 3.50408C25.39 1.79348 28.8521 1.51627 31.7095 2.78783C32.1333 2.97655 32.5579 3.20807 32.8411 3.58262C33.5178 4.47686 33.1488 5.77347 32.6775 6.79604C31.7433 8.82331 30.2014 10.4194 29.1867 12.3243C29.5204 11.6984 31.9761 10.0105 32.6789 9.57455C33.173 9.268 33.8157 9.14669 34.3302 9.41622C34.8513 9.68918 35.1247 10.2824 35.3285 10.845C35.6296 11.6758 35.8635 12.5621 35.7533 13.4407C35.643 14.3194 35.1213 15.1899 34.3051 15.4793C33.0892 15.91 31.2244 15.1926 29.9131 15.1345C32.2191 15.2368 34.4036 16.8094 35.2822 18.9995C36.1608 21.1896 35.688 23.8824 34.1194 25.618C32.1371 27.8115 28.9477 28.2564 26.0315 28.3286C23.6986 28.3863 21.0822 28.1651 19.529 26.3765C17.2464 23.7481 18.7808 19.5632 21.2063 17.6432C22.235 16.8289 23.4499 16.3061 24.6491 15.7927C23.7771 16.0895 22.9052 16.3864 22.0333 16.6833C21.5903 16.8342 21.1059 16.985 20.6678 16.8195C20.0483 16.5858 19.7934 15.8322 19.7066 15.1612C19.5722 14.1217 19.6884 12.9689 20.3793 12.1968C21.371 11.0884 23.3551 11.7128 24.469 12.3366Z" fill="#FCBFD4"/>
<path d="M25.2403 15.9545C24.7329 16.4878 23.977 16.8535 23.3188 17.2241C22.2866 17.8051 21.3385 18.5912 20.7237 19.621C20.2801 20.3637 19.7092 21.8667 20.1242 22.7401C20.6043 23.7511 21.4036 22.9514 21.9331 23.6728C22.1672 23.9918 21.9367 24.4733 22.0956 24.8376C22.3249 25.3634 23.0832 25.2375 23.5932 24.9974C24.1031 24.7573 24.8073 24.5327 25.1401 24.9971C25.2661 25.1729 25.2934 25.4078 25.4194 25.5837C25.6554 25.913 26.164 25.9104 26.4981 25.6884C26.8322 25.4664 27.0338 25.0911 27.2218 24.7311C28.1228 25.4419 29.6267 25.0715 30.1136 24.0191C30.3244 23.5636 30.3588 23.0371 30.5801 22.587C30.8014 22.1367 31.3454 21.7708 31.7745 22.0173C32.0173 22.1566 32.1453 22.4494 32.3839 22.5959C32.724 22.8046 33.1926 22.6341 33.434 22.3118C33.6753 21.9896 33.7353 21.5624 33.7391 21.156C33.7563 19.3611 32.7024 17.3994 31.0855 16.6207C29.5296 15.8714 28.0911 15.8855 29.1677 13.4337C28.7684 13.3949 28.498 12.9575 28.4897 12.546C28.4814 12.1348 28.6652 11.7483 28.8448 11.3808C29.4874 10.0655 30.1301 8.75059 30.7725 7.43535C30.6101 7.26926 30.4481 7.10345 30.2857 6.93736C29.405 7.63866 28.7201 8.59554 28.3308 9.66718C27.925 9.45187 27.9773 8.85326 28.0493 8.39044C28.1216 7.92762 28.0302 7.29076 27.5764 7.23604C27.5245 7.84232 27.3085 8.43314 26.9587 8.92441C26.6341 8.30104 26.3095 7.67738 25.9849 7.05402C25.9203 6.92993 25.8416 6.79398 25.7095 6.75789C25.3873 6.66958 25.2727 7.18098 25.3275 7.51845C25.4564 8.31294 25.5853 9.10714 25.7143 9.90164C25.1402 9.71317 24.6166 9.36524 24.2139 8.90477C24.2158 9.3412 24.2176 9.77763 24.2191 10.2141C23.7905 9.84677 23.3621 9.47918 22.9334 9.11188C22.4956 11.3461 26.2449 12.7392 25.7799 14.9677C25.6986 15.3577 25.5026 15.6786 25.2403 15.9545Z" fill="#E6528A"/>
<path d="M23.4969 18.5671L23.4959 18.5681L23.4969 18.5671Z" fill="#3A3C6B"/>
<path d="M23.4926 18.5701C23.4946 18.5694 23.4959 18.5681 23.4979 18.5674C23.478 18.5766 23.476 18.5776 23.4926 18.5701Z" fill="#3A3C6B"/>
<path d="M32.1815 13.9792C32.1439 13.8986 32.0847 13.8246 32.0155 13.7703C31.8536 13.6438 31.6518 13.5776 31.447 13.6045C31.2477 13.6307 31.04 13.7049 30.9099 13.8713C30.8393 13.9615 30.786 14.0601 30.7666 14.1709C30.7334 14.1803 30.6999 14.1898 30.6666 14.1998C30.3388 14.3012 30.0062 14.3908 29.6737 14.4758C29.341 14.5607 29.0057 14.6306 28.669 14.6973C28.5729 14.7164 28.4762 14.734 28.3795 14.7525C28.3794 14.6636 28.3718 14.5746 28.355 14.4874C28.5065 14.377 28.6497 14.2541 28.7801 14.1186C28.9704 13.9204 29.1369 13.6996 29.277 13.4615C29.2885 13.4421 29.2991 13.4218 29.31 13.4018C29.3559 13.4146 29.4047 13.4215 29.4516 13.4189C29.5301 13.4143 29.5965 13.3948 29.6661 13.3584C29.7146 13.3331 29.7569 13.2946 29.7857 13.2468C29.824 13.1835 29.8149 13.109 29.8108 13.0388C29.8071 12.973 29.8031 12.9069 29.7993 12.8408C29.7953 12.773 29.7915 12.7051 29.7875 12.6373C29.785 12.5963 29.7834 12.5552 29.7775 12.5146C29.7645 12.4265 29.7087 12.3637 29.6346 12.3222C29.5256 12.2612 29.4059 12.2497 29.2858 12.2757C29.1954 12.2953 29.1134 12.3451 29.0422 12.4033C28.9675 12.4646 28.9041 12.5392 28.8589 12.6262C28.8328 12.6766 28.8104 12.7316 28.7975 12.7874C28.7788 12.868 28.782 12.9388 28.7952 13.0192C28.8004 13.051 28.8102 13.0824 28.8225 13.1126C28.8118 13.1294 28.8015 13.1464 28.7911 13.1631C28.7233 13.2703 28.6834 13.3241 28.6079 13.4211C28.5311 13.5199 28.4489 13.6144 28.3621 13.7039C28.275 13.794 28.1949 13.871 28.1124 13.9424C28.1035 13.9307 28.093 13.9212 28.0839 13.9101C28.105 13.8465 28.1254 13.7827 28.1453 13.7186C28.2325 13.4353 28.3154 13.1501 28.3942 12.8644C28.4711 12.5851 28.539 12.3061 28.6073 12.0249C28.6336 11.9173 28.6502 11.8089 28.6713 11.7008C28.7085 11.6865 28.7453 11.6702 28.7815 11.6486C28.9393 11.5546 29.0684 11.392 29.1104 11.2082C29.2088 10.7763 28.823 10.3406 28.3923 10.4367C28.2005 10.4796 28.0518 10.6564 27.9984 10.8434C27.9712 10.9383 27.9699 11.0426 27.9926 11.1385C28.0013 11.1749 28.0192 11.2112 28.0425 11.2445C28.0478 11.3667 28.0812 11.4866 28.1563 11.5851C28.1587 11.5883 28.161 11.5906 28.1634 11.5938C28.135 11.6664 28.1069 11.7386 28.0829 11.8134C27.9925 12.0967 27.9012 12.3774 27.819 12.6638C27.7395 12.9413 27.6643 13.2202 27.5911 13.4993C27.5874 13.5136 27.5839 13.5278 27.5804 13.542C27.516 13.5166 27.4492 13.4988 27.3819 13.4841C27.302 13.1913 27.2155 12.9008 27.1264 12.6109C27.0303 12.2977 26.9236 11.9898 26.8175 11.6804C26.7768 11.5621 26.7268 11.4481 26.6802 11.3323C26.757 11.2645 26.8226 11.1801 26.8641 11.0872C26.8924 11.0238 26.918 10.9578 26.9289 10.8885C26.9442 10.7908 26.9431 10.7129 26.9271 10.616C26.9055 10.4858 26.8306 10.3522 26.7296 10.2701C26.6082 10.1715 26.4732 10.1221 26.3185 10.1151C26.1825 10.1089 26.0329 10.1484 25.92 10.2268C25.8819 10.2532 25.8493 10.2809 25.8196 10.3119C25.7486 10.3208 25.677 10.3719 25.6456 10.4351C25.5046 10.719 25.5788 11.0487 25.7831 11.2781C25.8882 11.3962 26.0308 11.4687 26.1797 11.4889C26.2047 11.6013 26.2259 11.7143 26.2572 11.8251C26.3419 12.1251 26.4248 12.424 26.5175 12.7215C26.5964 12.9747 26.6777 13.2273 26.7635 13.4783C26.6435 13.4987 26.5271 13.5385 26.419 13.5983C26.2852 13.5164 26.1502 13.4361 26.015 13.3578C25.8022 13.2348 25.5901 13.1056 25.3725 12.9922C25.3353 12.9727 25.297 12.9515 25.2583 12.9301C25.2532 12.7341 25.1738 12.5264 25.0194 12.4041C24.9567 12.3544 24.9134 12.3298 24.8392 12.3007C24.789 12.2809 24.74 12.2761 24.6864 12.2702C24.6062 12.2616 24.5218 12.2722 24.4447 12.2939C24.245 12.3503 24.0842 12.5031 24.0177 12.7036C23.9863 12.798 23.9887 12.9193 24.0197 13.0139C24.058 13.1299 24.1291 13.2143 24.2253 13.2838C24.2585 13.3077 24.2957 13.3268 24.3348 13.3418C24.3947 13.4229 24.4707 13.4933 24.5613 13.5354C24.7037 13.6012 24.8947 13.638 25.024 13.5283C25.038 13.5363 25.0522 13.5446 25.0659 13.5527C25.2637 13.6715 25.4688 13.7792 25.6705 13.8915C25.7734 13.9488 25.8772 14.0057 25.9815 14.0615C25.9292 14.1675 25.8932 14.2816 25.8728 14.3989C25.8627 14.3976 25.8528 14.3957 25.843 14.3947C25.5194 14.3554 25.197 14.3078 24.8746 14.2594C24.3947 14.1871 23.9187 14.0938 23.4398 14.0165C23.3769 13.7734 23.1671 13.5623 22.93 13.5041C22.7832 13.468 22.644 13.4905 22.5086 13.5534C22.3955 13.6059 22.3099 13.6956 22.2385 13.7976C22.0967 14.0011 22.0655 14.3094 22.2045 14.5229C22.2187 14.5445 22.2349 14.5631 22.2507 14.582C22.3046 14.6862 22.3859 14.7748 22.4899 14.8277C22.7045 14.9367 22.9772 14.9078 23.1701 14.7627C23.2323 14.7158 23.2901 14.6608 23.3371 14.5977C23.7964 14.7282 24.268 14.8124 24.741 14.881C25.082 14.9303 25.4255 14.9654 25.7691 14.9907C25.7959 14.9926 25.8226 14.9927 25.8497 14.9943C25.86 15.0408 25.8732 15.0866 25.891 15.1318C25.9066 15.172 25.9251 15.2106 25.9451 15.2481C25.9578 15.299 25.9742 15.3489 25.9926 15.3985C25.9399 15.4487 25.887 15.4983 25.8343 15.5486C25.5679 15.8042 25.2953 16.0546 25.0189 16.2986C24.7515 16.5345 24.4837 16.7728 24.2081 16.9976C24.0767 17.1047 23.952 17.2185 23.8205 17.3244C23.6364 17.1797 23.3857 17.0993 23.1592 17.1832C22.8955 17.2811 22.7403 17.5295 22.7291 17.812C22.7272 17.8652 22.7316 17.9218 22.7424 17.9786C22.737 18.0192 22.7409 18.0616 22.7584 18.1071C22.7862 18.1796 22.8191 18.2342 22.8693 18.2927C22.9398 18.3748 23.0334 18.4269 23.1317 18.4644C23.1572 18.474 23.1832 18.4819 23.2098 18.4882C23.2209 18.5509 23.2803 18.6193 23.3495 18.6089C23.3802 18.6042 23.4112 18.6007 23.4407 18.5902C23.4476 18.5877 23.4541 18.5849 23.461 18.5822C23.4724 18.5769 23.4838 18.5717 23.495 18.5668C23.5481 18.5446 23.5944 18.5098 23.6328 18.4661L23.6334 18.4655C23.8454 18.3927 24.0251 18.2307 24.0732 17.9986C24.0889 17.9228 24.0892 17.8457 24.0784 17.7709C24.2214 17.6807 24.3647 17.5967 24.5037 17.4968C24.8292 17.2623 25.1439 17.0176 25.4444 16.7493C25.7298 16.4942 26.0003 16.2243 26.2582 15.9402C26.2805 15.9153 26.3019 15.8895 26.324 15.8643C26.3745 15.9048 26.4283 15.9411 26.4847 15.9731C26.4783 15.9827 26.4718 15.9923 26.4657 16.0018C26.3934 16.1174 26.324 16.2337 26.2631 16.3562C26.1268 16.6302 26.0121 16.9163 25.9222 17.2099C25.8345 17.4964 25.764 17.7965 25.741 18.0963C25.7337 18.1927 25.7259 18.2882 25.7198 18.3834C25.4815 18.4567 25.2769 18.6543 25.2443 18.9144C25.2296 19.0313 25.2351 19.1467 25.2753 19.2588C25.3155 19.3706 25.3686 19.4618 25.4476 19.5496C25.5271 19.638 25.6266 19.6974 25.7355 19.7389C25.8491 19.7821 25.9633 19.7778 26.0805 19.7592C26.1016 19.7497 26.123 19.7399 26.1442 19.7303C26.1752 19.7124 26.1998 19.6883 26.2183 19.6579C26.2419 19.6256 26.2557 19.592 26.264 19.5555C26.335 19.5304 26.3996 19.4914 26.4542 19.432C26.5245 19.3549 26.578 19.2527 26.5963 19.1484C26.6343 18.9339 26.5799 18.719 26.4335 18.5586C26.3963 18.5179 26.3537 18.4846 26.3083 18.4571C26.3175 18.3609 26.3294 18.2651 26.3488 18.1702C26.4056 17.8946 26.4526 17.6206 26.532 17.3502C26.6051 17.1006 26.6944 16.8563 26.8037 16.6211C26.8684 16.4821 26.9446 16.3467 27.0012 16.2069C27.0024 16.2931 27.0053 16.3793 27.0111 16.4657C27.0356 16.8282 27.0902 17.1905 27.1744 17.5437C27.2911 18.0328 27.4735 18.5231 27.7315 18.9598C27.7202 18.9691 27.7079 18.9773 27.6969 18.9875C27.651 19.0306 27.6137 19.0856 27.5827 19.1407C27.5271 19.2397 27.5179 19.3568 27.5446 19.4662C27.5756 19.5941 27.6557 19.7011 27.7589 19.7758C27.7649 19.8516 27.8163 19.931 27.8808 19.9642C27.9613 20.0056 28.0454 20.0295 28.1358 20.0294C28.2271 20.0293 28.3092 20.0001 28.3903 19.9615C28.5144 19.9024 28.6219 19.7912 28.6877 19.669C28.763 19.5286 28.7919 19.3554 28.7432 19.2003C28.6984 19.0573 28.5966 18.9294 28.4625 18.8656C28.4125 18.8419 28.3605 18.8266 28.3076 18.816C28.2316 18.649 28.157 18.482 28.0876 18.3142C27.9596 18.0049 27.8628 17.6856 27.7837 17.3598C27.7056 17.039 27.6588 16.7483 27.6345 16.4239C27.6951 16.5321 27.7588 16.6388 27.8285 16.7412C28.0102 17.0083 28.2147 17.2616 28.4389 17.4925C28.6599 17.7202 28.9009 17.9212 29.1627 18.0974C29.2096 18.1291 29.2573 18.1584 29.3053 18.1865C29.2969 18.2147 29.2902 18.2437 29.2864 18.2736C29.2805 18.3189 29.2757 18.3547 29.2822 18.3989C29.2851 18.4186 29.2875 18.4381 29.2922 18.4572C29.2968 18.4769 29.3038 18.4957 29.3116 18.5142C29.3332 18.5649 29.3543 18.6056 29.3992 18.6396C29.4068 18.6454 29.4153 18.6506 29.4237 18.6557C29.4303 18.6716 29.4372 18.6877 29.4458 18.705C29.4694 18.7524 29.5044 18.7955 29.5402 18.8336C29.6153 18.9138 29.7152 18.9681 29.8183 18.9991C29.9282 19.032 30.0381 19.0287 30.1492 19.0081C30.2562 18.9883 30.3533 18.9281 30.4326 18.8535C30.5119 18.7789 30.5721 18.6641 30.5944 18.5565C30.6433 18.3203 30.571 18.0862 30.4165 17.9079C30.2572 17.724 29.9861 17.6596 29.7615 17.7368C29.7503 17.7405 29.7395 17.746 29.7286 17.7503C29.6595 17.6975 29.5901 17.6441 29.5215 17.5915C29.324 17.4402 29.0866 17.2305 28.8944 17.0354C28.6893 16.8273 28.5267 16.6313 28.3705 16.4034C28.2884 16.2838 28.2094 16.162 28.1361 16.0366C28.0839 15.9471 28.0344 15.8497 27.9663 15.7752C28.0832 15.8727 28.2098 15.9565 28.3399 16.0342C28.6008 16.1898 28.8835 16.3121 29.168 16.4138C29.4408 16.5115 29.7224 16.5793 30.0089 16.6183C30.0657 16.6262 30.1179 16.6288 30.1689 16.6303C30.1939 16.828 30.314 17.0134 30.4891 17.104C30.6588 17.1917 30.8631 17.205 31.0443 17.1484C31.2204 17.0934 31.3941 16.9672 31.4704 16.7905C31.5158 16.6854 31.5441 16.5727 31.5291 16.4569C31.5142 16.3408 31.4817 16.2286 31.413 16.1326C31.3424 16.034 31.2616 15.9528 31.1575 15.8914C31.0551 15.8308 30.9487 15.8037 30.8328 15.7934C30.6356 15.7755 30.4433 15.8745 30.3179 16.0282C30.2629 16.0144 30.2074 16.0003 30.1459 15.9901C29.874 15.9456 29.6054 15.8779 29.3431 15.7915C29.0947 15.7096 28.8754 15.6097 28.6395 15.4854C28.5564 15.4416 28.4753 15.3946 28.3933 15.3485C28.7557 15.3301 29.1211 15.254 29.4738 15.1785C29.8535 15.0972 30.2224 14.991 30.588 14.86C30.7113 14.8159 30.832 14.7692 30.9508 14.7173C30.9798 14.7445 31.0113 14.7706 31.0457 14.7927C31.0944 14.8642 31.1577 14.9251 31.2367 14.9657C31.4481 15.0745 31.7022 15.0539 31.8973 14.9164C32.0685 14.7959 32.2137 14.6041 32.2413 14.3877C32.2484 14.3321 32.2558 14.2773 32.2493 14.2213C32.2391 14.1288 32.2207 14.0627 32.1815 13.9792Z" fill="#3A3C6B"/>
<path d="M27.1406 14.7401C27.1412 14.7401 27.1416 14.7401 27.1423 14.7401C27.1414 14.7394 27.1407 14.7392 27.1406 14.7401Z" fill="#3A3C6B"/>
<path d="M27.6948 14.6489C27.6563 14.5377 27.5939 14.4251 27.5028 14.3502C27.395 14.2617 27.2682 14.2034 27.127 14.2108C26.9797 14.2187 26.8507 14.2812 26.7434 14.3829C26.561 14.5552 26.4732 14.8547 26.5538 15.0987C26.5793 15.176 26.628 15.2454 26.6862 15.3008C26.7439 15.3556 26.8217 15.3758 26.8939 15.3607C26.9752 15.4012 27.0651 15.4212 27.1571 15.4122C27.1683 15.4111 27.1786 15.408 27.1895 15.4066C27.4296 15.4249 27.6595 15.2526 27.7136 15.0051C27.7392 14.8888 27.7336 14.7614 27.6948 14.6489Z" fill="#FFDC52"/>
</svg>
