<svg width="36" height="31" viewBox="0 0 36 31" fill="none" xmlns="http://www.w3.org/2000/svg">
<path d="M31.237 4.2329C30.4648 3.4603 29.5479 2.84742 28.5387 2.42927C27.5296 2.01112 26.4479 1.7959 25.3555 1.7959C24.2632 1.7959 23.1815 2.01112 22.1724 2.42927C21.1632 2.84742 20.2463 3.4603 19.4741 4.2329L17.8714 5.83556L16.2687 4.2329C14.7089 2.67303 12.5932 1.79671 10.3873 1.79671C8.18127 1.79671 6.06564 2.67303 4.50577 4.2329C2.9459 5.79276 2.06958 7.90839 2.06958 10.1144C2.06958 12.3204 2.9459 14.436 4.50577 15.9959L6.10844 17.5985L17.8714 29.3615L29.6344 17.5985L31.237 15.9959C32.0096 15.2236 32.6225 14.3067 33.0407 13.2976C33.4588 12.2884 33.674 11.2067 33.674 10.1144C33.674 9.02201 33.4588 7.94035 33.0407 6.93119C32.6225 5.92202 32.0096 5.00513 31.237 4.2329Z" stroke="black" stroke-width="3.0239" stroke-linecap="round" stroke-linejoin="round"/>
</svg>
