<svg width="36" height="32" viewBox="0 0 36 32" fill="none" xmlns="http://www.w3.org/2000/svg">
<path d="M31.1674 4.437C30.3952 3.6644 29.4783 3.05152 28.4692 2.63337C27.46 2.21522 26.3783 2 25.286 2C24.1936 2 23.1119 2.21522 22.1028 2.63337C21.0936 3.05152 20.1767 3.6644 19.4045 4.437L17.8018 6.03966L16.1992 4.437C14.6393 2.87713 12.5237 2.00081 10.3177 2.00081C8.11169 2.00081 5.99606 2.87713 4.43619 4.437C2.87632 5.99686 2 8.1125 2 10.3185C2 12.5245 2.87632 14.6401 4.43619 16.2L6.03886 17.8026L17.8018 29.5656L29.5648 17.8026L31.1674 16.2C31.94 15.4277 32.5529 14.5108 32.9711 13.5017C33.3892 12.4925 33.6044 11.4108 33.6044 10.3185C33.6044 9.22612 33.3892 8.14445 32.9711 7.13529C32.5529 6.12613 31.94 5.20924 31.1674 4.437Z" stroke="white" stroke-width="3.0239" stroke-linecap="round" stroke-linejoin="round"/>
</svg>
