<svg width="30" height="30" viewBox="0 0 30 30" fill="none" xmlns="http://www.w3.org/2000/svg">
<g clip-path="url(#clip0_13_1352)">
<path d="M28 16.1184C27.7723 18.5824 26.8476 20.9306 25.334 22.8882C23.8205 24.8458 21.7807 26.3318 19.4534 27.1724C17.1261 28.0131 14.6076 28.1735 12.1924 27.635C9.77726 27.0965 7.56542 25.8813 5.81571 24.1316C4.066 22.3818 2.85078 20.17 2.31226 17.7549C1.77374 15.3397 1.93418 12.8211 2.77482 10.4938C3.61545 8.16653 5.10151 6.12677 7.05911 4.61323C9.0167 3.09969 11.3649 2.17497 13.8288 1.94727C12.3863 3.8989 11.6921 6.30349 11.8726 8.72368C12.053 11.1439 13.0962 13.4189 14.8123 15.135C16.5284 16.8511 18.8034 17.8942 21.2236 18.0747C23.6438 18.2552 26.0484 17.561 28 16.1184Z" stroke="black" stroke-width="3" stroke-linecap="round" stroke-linejoin="round"/>
</g>
<defs>
<clipPath id="clip0_13_1352">
<rect width="30" height="30" fill="white"/>
</clipPath>
</defs>
</svg>
