<svg width="35" height="31" viewBox="0 0 35 31" fill="none" xmlns="http://www.w3.org/2000/svg">
<path d="M30.7992 4.23314C30.0269 3.46054 29.11 2.84766 28.1009 2.42951C27.0917 2.01136 26.01 1.79614 24.9177 1.79614C23.8253 1.79614 22.7437 2.01136 21.7345 2.42951C20.7253 2.84766 19.8084 3.46054 19.0362 4.23314L17.4335 5.83581L15.8309 4.23314C14.271 2.67327 12.1554 1.79695 9.94939 1.79695C7.7434 1.79695 5.62777 2.67327 4.0679 4.23314C2.50804 5.79301 1.63171 7.90864 1.63171 10.1146C1.63171 12.3206 2.50804 14.4362 4.0679 15.9961L5.67057 17.5988L17.4335 29.3617L29.1965 17.5988L30.7992 15.9961C31.5718 15.2239 32.1846 14.307 32.6028 13.2978C33.0209 12.2886 33.2362 11.207 33.2362 10.1146C33.2362 9.02226 33.0209 7.9406 32.6028 6.93143C32.1846 5.92227 31.5718 5.00538 30.7992 4.23314Z" fill="black" stroke="black" stroke-width="3.0239" stroke-linecap="round" stroke-linejoin="round"/>
</svg>
