<svg width="40" height="40" viewBox="0 0 40 40" fill="none" xmlns="http://www.w3.org/2000/svg">
<circle cx="20" cy="20" r="20" fill="#FFFEFE"/>
<path d="M26.7764 10.5619C25.0555 8.90987 22.674 8 20.0706 8C16.0939 8 13.648 9.63013 12.2964 10.9976C10.6307 12.6828 9.67554 14.9204 9.67554 17.1369C9.67554 19.9197 10.8396 22.0557 12.7888 22.8503C12.9197 22.9039 13.0514 22.9309 13.1805 22.9309C13.5917 22.9309 13.9175 22.6618 14.0304 22.2302C14.0963 21.9826 14.2487 21.3717 14.315 21.1065C14.4569 20.5829 14.3423 20.331 14.0328 19.9663C13.469 19.2992 13.2065 18.5103 13.2065 17.4837C13.2065 14.4344 15.4771 11.1935 19.6854 11.1935C23.0246 11.1935 25.0988 13.0914 25.0988 16.1464C25.0988 18.0742 24.6836 19.8596 23.9294 21.1738C23.4052 22.087 22.4836 23.1755 21.0687 23.1755C20.4569 23.1755 19.9073 22.9242 19.5605 22.486C19.2329 22.0718 19.1249 21.5367 19.2567 20.9791C19.4056 20.349 19.6085 19.6917 19.805 19.0564C20.1632 17.8959 20.5019 16.7999 20.5019 15.9254C20.5019 14.4297 19.5824 13.4247 18.2139 13.4247C16.4749 13.4247 15.1124 15.191 15.1124 17.4459C15.1124 18.5518 15.4063 19.3789 15.5394 19.6965C15.3203 20.6247 14.0182 26.1433 13.7713 27.1839C13.6284 27.7914 12.7682 32.5895 14.1921 32.972C15.7919 33.4019 17.2219 28.7289 17.3675 28.2009C17.4854 27.7714 17.8982 26.1475 18.1511 25.1493C18.9234 25.8932 20.1669 26.3962 21.3769 26.3962C23.6579 26.3962 25.7093 25.3697 27.1532 23.5061C28.5535 21.6984 29.3248 19.179 29.3248 16.4122C29.3247 14.2492 28.3958 12.1168 26.7764 10.5619Z" fill="black"/>
</svg>
