<svg width="40" height="40" viewBox="0 0 40 40" fill="none" xmlns="http://www.w3.org/2000/svg">
<circle cx="20" cy="20" r="20" fill="#FFFEFE"/>
<path fill-rule="evenodd" clip-rule="evenodd" d="M20.398 25.804C21.881 25.0348 27 22.0163 27 17C27 13.134 23.866 10 20 10C16.134 10 13 13.134 13 17C13 22.0163 18.119 25.0348 19.602 25.804C19.8548 25.9351 20.1452 25.9351 20.398 25.804ZM20 20C21.6569 20 23 18.6569 23 17C23 15.3431 21.6569 14 20 14C18.3431 14 17 15.3431 17 17C17 18.6569 18.3431 20 20 20Z" fill="#222222"/>
<path d="M26.0622 24.5C26.6766 24.9561 27 25.4734 27 26C27 26.5266 26.6766 27.0439 26.0622 27.5C25.4478 27.9561 24.5641 28.3348 23.5 28.5981C22.4359 28.8614 21.2288 29 20 29C18.7712 29 17.5641 28.8614 16.5 28.5981C15.4359 28.3348 14.5522 27.9561 13.9378 27.5C13.3234 27.0439 13 26.5266 13 26C13 25.4734 13.3234 24.9561 13.9378 24.5" stroke="#222222" stroke-width="2" stroke-linecap="round"/>
</svg>
