<svg width="40" height="40" viewBox="0 0 40 40" fill="none" xmlns="http://www.w3.org/2000/svg">
<circle cx="20" cy="20" r="20" fill="#FFA6D6"/>
<path d="M23 13C25.8284 13 27.2424 13.0002 28.1211 13.8789C28.9998 14.7576 29 16.1716 29 19V21C29 23.8284 28.9998 25.2424 28.1211 26.1211C27.2424 26.9998 25.8284 27 23 27H17C14.1716 27 12.7576 26.9998 11.8789 26.1211C11.0002 25.2424 11 23.8284 11 21V19C11 16.1716 11.0002 14.7576 11.8789 13.8789C12.7576 13.0002 14.1716 13 17 13H23ZM26.832 16.4453C26.5257 15.9858 25.9048 15.8616 25.4453 16.168L20 19.7979L14.5547 16.168L14.4668 16.1152C14.0188 15.8782 13.4552 16.0145 13.168 16.4453C12.8807 16.8762 12.9718 17.4492 13.3633 17.7715L13.4453 17.832L18.8906 21.4619L19.0186 21.541C19.6707 21.9085 20.4795 21.8818 21.1094 21.4619L26.5547 17.832C27.0142 17.5257 27.1384 16.9048 26.832 16.4453Z" fill="#222222"/>
</svg>
