<svg width="40" height="40" viewBox="0 0 40 40" fill="none" xmlns="http://www.w3.org/2000/svg">
<circle cx="20" cy="20" r="20" fill="#FFA6D6"/>
<path d="M26.7761 10.5619C25.0553 8.90987 22.6738 8 20.0704 8C16.0936 8 13.6477 9.63013 12.2962 10.9976C10.6304 12.6828 9.67529 14.9204 9.67529 17.1369C9.67529 19.9197 10.8393 22.0557 12.7886 22.8503C12.9194 22.9039 13.0511 22.9309 13.1802 22.9309C13.5915 22.9309 13.9173 22.6618 14.0302 22.2302C14.096 21.9826 14.2485 21.3717 14.3148 21.1065C14.4567 20.5829 14.342 20.331 14.0325 19.9663C13.4688 19.2992 13.2062 18.5103 13.2062 17.4837C13.2062 14.4344 15.4768 11.1935 19.6852 11.1935C23.0244 11.1935 25.0986 13.0914 25.0986 16.1464C25.0986 18.0742 24.6834 19.8596 23.9291 21.1738C23.405 22.087 22.4834 23.1755 21.0685 23.1755C20.4567 23.1755 19.9071 22.9242 19.5603 22.486C19.2327 22.0718 19.1247 21.5367 19.2565 20.9791C19.4053 20.349 19.6083 19.6917 19.8047 19.0564C20.163 17.8959 20.5017 16.7999 20.5017 15.9254C20.5017 14.4297 19.5821 13.4247 18.2137 13.4247C16.4746 13.4247 15.1122 15.191 15.1122 17.4459C15.1122 18.5518 15.4061 19.3789 15.5391 19.6965C15.32 20.6247 14.018 26.1433 13.771 27.1839C13.6282 27.7914 12.7679 32.5895 14.1918 32.972C15.7916 33.4019 17.2217 28.7289 17.3672 28.2009C17.4852 27.7714 17.8979 26.1475 18.1509 25.1493C18.9232 25.8932 20.1667 26.3962 21.3767 26.3962C23.6577 26.3962 25.709 25.3697 27.1529 23.5061C28.5533 21.6984 29.3245 19.179 29.3245 16.4122C29.3244 14.2492 28.3955 12.1168 26.7761 10.5619Z" fill="black"/>
</svg>
