<svg width="40" height="40" viewBox="0 0 40 40" fill="none" xmlns="http://www.w3.org/2000/svg">
<circle cx="20" cy="20" r="20" fill="#FFA6D6"/>
<path d="M14.6796 11.3204L15.2929 10.7071C15.6834 10.3166 16.3166 10.3166 16.7071 10.7071L19.2929 13.2929C19.6834 13.6834 19.6834 14.3166 19.2929 14.7071L17.5005 16.4995C17.2016 16.7984 17.1275 17.255 17.3165 17.6331C18.4093 19.8186 20.1814 21.5907 22.3669 22.6835C22.745 22.8725 23.2016 22.7984 23.5005 22.4995L25.2929 20.7071C25.6834 20.3166 26.3166 20.3166 26.7071 20.7071L29.2929 23.2929C29.6834 23.6834 29.6834 24.3166 29.2929 24.7071L28.6796 25.3204C26.5683 27.4317 23.2257 27.6693 20.837 25.8777L19.6286 24.9714C17.885 23.6638 16.3362 22.115 15.0286 20.3714L14.1223 19.163C12.3307 16.7743 12.5683 13.4317 14.6796 11.3204Z" fill="#222222"/>
</svg>
