<svg width="40" height="40" viewBox="0 0 40 40" fill="none" xmlns="http://www.w3.org/2000/svg">
<circle cx="20" cy="20" r="20" fill="#FFA6D6"/>
<path d="M20 10C23.866 10 27 13.134 27 17C27 22.0159 21.8819 25.0342 20.3984 25.8037C20.1456 25.9349 19.8544 25.9349 19.6016 25.8037C18.1181 25.0342 13 22.0159 13 17C13 13.134 16.134 10 20 10ZM20 14C18.3431 14 17 15.3431 17 17C17 18.6569 18.3431 20 20 20C21.6569 20 23 18.6569 23 17C23 15.3431 21.6569 14 20 14Z" fill="#222222"/>
<path d="M26.0622 24.5C26.6766 24.9561 27 25.4734 27 26C27 26.5266 26.6766 27.0439 26.0622 27.5C25.4478 27.9561 24.5641 28.3348 23.5 28.5981C22.4359 28.8614 21.2288 29 20 29C18.7712 29 17.5641 28.8614 16.5 28.5981C15.4359 28.3348 14.5522 27.9561 13.9378 27.5C13.3234 27.0439 13 26.5266 13 26C13 25.4734 13.3234 24.9561 13.9378 24.5" stroke="#222222" stroke-width="2" stroke-linecap="round"/>
</svg>
