<svg width="80" height="80" viewBox="0 0 80 80" fill="none" xmlns="http://www.w3.org/2000/svg">
<circle cx="40" cy="40" r="40" fill="#FFA6D6"/>
<path d="M54.8169 27.6501C56.9836 30.0334 58.2836 32.6334 58.2836 36.9667C58.2836 44.5501 52.8669 51.2667 45.2836 54.7334L43.3336 51.9167C50.4836 48.0167 52.0003 43.0334 52.4336 39.7834C51.3503 40.4334 49.8336 40.6501 48.3169 40.4334C44.4169 40.0001 41.3836 36.9667 41.3836 32.8501C41.3836 30.9001 42.2503 28.9501 43.5503 27.4334C45.0669 25.9167 46.8003 25.2667 48.9669 25.2667C51.3503 25.2667 53.5169 26.3501 54.8169 27.6501ZM33.1503 27.6501C35.3169 30.0334 36.6169 32.6334 36.6169 36.9667C36.6169 44.5501 31.2003 51.2667 23.6169 54.7334L21.6669 51.9167C28.8169 48.0167 30.3336 43.0334 30.7669 39.7834C29.6836 40.4334 28.1669 40.6501 26.6503 40.4334C22.7503 40.0001 19.7169 36.7501 19.7169 32.8501C19.7169 30.9001 20.5836 28.9501 21.8836 27.4334C23.4003 25.9167 25.1336 25.2667 27.3003 25.2667C29.6836 25.2667 31.8503 26.3501 33.1503 27.6501Z" fill="white"/>
</svg>
